<svg width="95" height="29" viewBox="0 0 95 29" fill="none" xmlns="http://www.w3.org/2000/svg">
<g id="Group 3168">
<path id="Vector" fill-rule="evenodd" clip-rule="evenodd" d="M58.3649 22.3479C52.9371 26.3927 44.9854 28.5422 38.1645 28.5422C29.0522 28.5887 20.2511 25.2217 13.4862 19.1011C12.9706 18.6385 13.4229 18.0037 14.0381 18.3664C21.5588 22.6754 30.0722 24.9389 38.7344 24.9326C45.205 24.9 51.6055 23.5871 57.5688 21.0691C58.4734 20.6791 59.2695 21.6767 58.3649 22.3479Z" fill="#FF9900"/>
<path id="Vector_2" fill-rule="evenodd" clip-rule="evenodd" d="M60.6351 19.7451C59.9386 18.8382 56.0215 19.3189 54.3027 19.5365C53.769 19.6 53.6876 19.1284 54.167 18.7928C57.297 16.589 62.4172 17.2239 63.0143 17.9585C63.6114 18.6931 62.8605 23.8535 59.9295 26.3113C59.4772 26.6922 59.0249 26.4926 59.242 25.9938C59.9024 24.3432 61.386 20.643 60.6804 19.7451H60.6351Z" fill="#FF9900"/>
<path id="Vector_3" fill-rule="evenodd" clip-rule="evenodd" d="M54.3841 3.24844V1.1081C54.3816 1.03595 54.3939 0.964064 54.4203 0.896898C54.4467 0.829731 54.4865 0.768728 54.5375 0.717685C54.5884 0.666641 54.6492 0.626648 54.7162 0.600198C54.7832 0.573749 54.8549 0.561408 54.9269 0.563941H64.4888C64.5607 0.560194 64.6327 0.571329 64.7001 0.596656C64.7675 0.621982 64.8291 0.660958 64.8808 0.711153C64.9326 0.761348 64.9735 0.821688 65.001 0.888418C65.0285 0.955148 65.042 1.02684 65.0406 1.09903V2.91288C65.0406 3.22123 64.7783 3.62028 64.3169 4.25513L59.3686 11.4108C61.2499 11.3168 63.1226 11.7235 64.7964 12.5898C64.9451 12.6736 65.0698 12.7944 65.1585 12.9405C65.2472 13.0867 65.297 13.2532 65.303 13.4241V15.7096C65.3045 15.7947 65.285 15.8789 65.2463 15.9546C65.2075 16.0304 65.1508 16.0954 65.0809 16.1438C65.0111 16.1923 64.9305 16.2227 64.8461 16.2324C64.7617 16.2421 64.6763 16.2307 64.5974 16.1993C63.0363 15.3876 61.3036 14.9639 59.545 14.9639C57.7865 14.9639 56.0537 15.3876 54.4927 16.1993C54.158 16.3716 53.8052 16.0179 53.8052 15.7005V13.533C53.775 13.015 53.9011 12.4999 54.167 12.0547L59.9023 3.80166H54.945C54.8731 3.80541 54.8011 3.79427 54.7337 3.76895C54.6663 3.74362 54.6047 3.70465 54.553 3.65445C54.5012 3.60426 54.4603 3.54392 54.4328 3.47719C54.4053 3.41046 54.3918 3.33877 54.3932 3.26658L54.3841 3.24844Z" fill="#232F3E"/>
<path id="Vector_4" fill-rule="evenodd" clip-rule="evenodd" d="M73.3005 3.33883C71.1565 3.33883 71.0208 6.2682 71.0208 8.09112C71.0208 9.91404 71.0208 13.8229 73.2733 13.8229C75.5259 13.8229 75.6344 10.6759 75.6344 8.75317C75.6816 7.415 75.5354 6.07701 75.2002 4.78084C75.1115 4.35059 74.87 3.96725 74.5206 3.70203C74.1712 3.43682 73.7376 3.30776 73.3005 3.33883ZM73.3005 0.273426C77.6246 0.273426 79.9586 4.00089 79.9586 8.72597C79.9586 13.2606 77.3804 16.8883 73.3005 16.8883C69.0668 16.8883 66.751 13.1699 66.751 8.53551C66.751 3.90113 69.094 0.246216 73.3005 0.246216V0.273426Z" fill="#232F3E"/>
<path id="Vector_5" fill-rule="evenodd" clip-rule="evenodd" d="M49.6898 16.5617C49.5945 16.6393 49.4788 16.6875 49.3568 16.7004C49.2347 16.7132 49.1115 16.6903 49.0023 16.6343C48.342 16.0827 47.7793 15.4235 47.3377 14.6844C46.7656 15.4014 46.0317 15.9718 45.1966 16.3486C44.3614 16.7255 43.4489 16.898 42.5342 16.8519C40.0917 16.8519 38.1829 15.3374 38.1829 12.3173C38.1462 11.2984 38.4247 10.2931 38.9802 9.43906C39.5356 8.58504 40.341 7.92413 41.2858 7.5469C43.0396 6.95883 44.8662 6.617 46.7135 6.53114C46.8003 5.6834 46.6792 4.82724 46.3607 4.0371C46.1628 3.79512 45.9125 3.60156 45.6288 3.47113C45.3451 3.34069 45.0354 3.27682 44.7234 3.28435C44.1952 3.24276 43.6696 3.39303 43.2428 3.70773C42.816 4.02243 42.5163 4.48055 42.3985 4.99844C42.3352 5.32493 42.0999 5.59701 41.8467 5.5698L39.0604 5.26145C38.9908 5.25289 38.9238 5.22996 38.8636 5.1941C38.8033 5.15824 38.7511 5.11024 38.7103 5.05314C38.6695 4.99603 38.6409 4.93105 38.6265 4.86232C38.612 4.79358 38.6119 4.72258 38.6262 4.65381C39.2775 1.22563 42.3623 0.191738 45.1304 0.191738C46.7197 0.128401 48.2782 0.643833 49.5179 1.64282C50.9291 2.96693 50.7934 4.73543 50.7934 6.65811V11.1927C50.8047 12.207 51.1991 13.1792 51.8971 13.9135C51.9971 14.0168 52.0531 14.155 52.0531 14.299C52.0531 14.4429 51.9971 14.5812 51.8971 14.6844C51.3 15.1832 49.6536 16.6162 49.6536 16.6162L49.6898 16.5617ZM46.804 9.45144C46.9128 10.5128 46.7249 11.5836 46.2612 12.5441C46.0731 12.9249 45.787 13.2485 45.4323 13.4813C45.0776 13.7141 44.6673 13.8477 44.2439 13.8682C43.1312 13.8682 42.4347 13.0157 42.4347 11.755C42.4347 9.27006 44.6601 8.81659 46.7678 8.81659V9.45144H46.804Z" fill="#232F3E"/>
<path id="Vector_6" fill-rule="evenodd" clip-rule="evenodd" d="M11.5233 16.562C11.428 16.6395 11.3123 16.6877 11.1902 16.7006C11.0682 16.7135 10.945 16.6905 10.8357 16.6345C10.1755 16.083 9.61278 15.4238 9.17122 14.6846C8.60089 15.399 7.86992 15.9679 7.03815 16.3446C6.20638 16.7214 5.29744 16.8953 4.38573 16.8522C1.93418 16.8522 0.0344652 15.3376 0.0344652 12.3175C-0.00224968 11.2987 0.276218 10.2933 0.83171 9.43929C1.3872 8.58526 2.19254 7.92435 3.13734 7.54712C4.89097 6.95826 6.71768 6.6164 8.56512 6.53136C8.65184 5.68362 8.53072 4.82746 8.21231 4.03732C8.02275 3.79472 7.78129 3.59788 7.50573 3.46132C7.23016 3.32476 6.92754 3.25196 6.62017 3.24829C6.09261 3.20171 5.56602 3.34763 5.13722 3.65922C4.70841 3.97081 4.40622 4.42712 4.28622 4.94424C4.2229 5.27074 3.98769 5.54282 3.7344 5.51561L0.948136 5.20725C0.878585 5.19869 0.811563 5.17576 0.751304 5.1399C0.691045 5.10405 0.63886 5.05605 0.59805 4.99894C0.557241 4.94183 0.528696 4.87686 0.514214 4.80812C0.499732 4.73939 0.499631 4.66839 0.513918 4.59961C1.1562 1.17144 4.25003 0.137538 7.0182 0.137538C8.60748 0.0742014 10.1659 0.589634 11.4057 1.58862C12.8169 2.91273 12.6812 4.68124 12.6812 6.60392V11.1385C12.6925 12.1528 13.0868 13.125 13.7848 13.8593C13.8849 13.9626 13.9408 14.1008 13.9408 14.2448C13.9408 14.3887 13.8849 14.527 13.7848 14.6302C13.1878 15.129 11.5413 16.562 11.5413 16.562H11.5233ZM8.59226 9.45166C8.70105 10.5131 8.51312 11.5839 8.04948 12.5443C7.86595 12.9157 7.5894 13.2329 7.24689 13.465C6.90438 13.6971 6.50764 13.8361 6.09548 13.8684C4.98278 13.8684 4.28622 13.0159 4.28622 11.7553C4.28622 9.27028 6.51161 8.81682 8.6194 8.81682V9.45166H8.59226Z" fill="#232F3E"/>
<path id="Vector_7" fill-rule="evenodd" clip-rule="evenodd" d="M20.0542 8.12759C20.0542 6.3863 19.9728 4.00108 22.0625 4.00108C24.1521 4.00108 23.8717 6.44978 23.8717 8.12759V16.0632C23.8716 16.202 23.9254 16.3354 24.0216 16.4353C24.1178 16.5351 24.249 16.5936 24.3874 16.5983H27.3003C27.3723 16.6007 27.4441 16.5887 27.5114 16.563C27.5788 16.5373 27.6404 16.4984 27.6926 16.4486C27.7448 16.3988 27.7866 16.3391 27.8155 16.2729C27.8445 16.2067 27.86 16.1354 27.8611 16.0632V8.12759C27.7988 7.16091 27.8904 6.19043 28.1325 5.25264C28.2706 4.90043 28.5088 4.59664 28.8176 4.37898C29.1264 4.16132 29.4921 4.03938 29.8694 4.02829C30.066 4.0001 30.2663 4.01107 30.4587 4.06056C30.6511 4.11006 30.8319 4.1971 30.9907 4.31672C31.1495 4.43634 31.2832 4.58619 31.3842 4.75768C31.4852 4.92916 31.5514 5.11893 31.5791 5.31612C31.6746 6.25004 31.7018 7.1897 31.6606 8.12759V16.0632C31.6628 16.2028 31.7185 16.3363 31.8162 16.4359C31.9139 16.5355 32.046 16.5936 32.1852 16.5983H35.0439C35.1159 16.6007 35.1877 16.5887 35.2551 16.563C35.3224 16.5373 35.384 16.4984 35.4362 16.4486C35.4884 16.3988 35.5302 16.3391 35.5592 16.2729C35.5881 16.2067 35.6036 16.1354 35.6047 16.0632V6.61302C35.6047 5.00777 35.7947 3.17578 34.872 1.91515C34.4799 1.39494 33.9706 0.975059 33.3858 0.689776C32.8009 0.404493 32.1571 0.261895 31.5068 0.273619C30.6302 0.249369 29.7687 0.505158 29.0467 1.00402C28.3247 1.50288 27.7796 2.21897 27.4902 3.04881C26.6761 1.1624 25.5272 0.273619 23.7089 0.273619C22.854 0.243505 22.0135 0.500072 21.3204 1.00272C20.6274 1.50536 20.1213 2.22538 19.8823 3.04881H19.828V1.13519C19.828 0.990876 19.7708 0.852469 19.669 0.75042C19.5673 0.648371 19.4292 0.591041 19.2852 0.591041H16.5714C16.4993 0.589837 16.4278 0.603024 16.3609 0.629831C16.294 0.656637 16.2331 0.696528 16.1817 0.747178C16.1303 0.797828 16.0895 0.858223 16.0617 0.924841C16.0339 0.99146 16.0195 1.06297 16.0195 1.13519V16.0541C16.0195 16.1263 16.0339 16.1979 16.0617 16.2645C16.0895 16.3311 16.1303 16.3915 16.1817 16.4421C16.2331 16.4928 16.294 16.5327 16.3609 16.5595C16.4278 16.5863 16.4993 16.5995 16.5714 16.5983H19.4752C19.6192 16.5983 19.7572 16.5409 19.859 16.4389C19.9608 16.3368 20.018 16.1984 20.018 16.0541V8.12759H20.0542Z" fill="#232F3E"/>
<path id="Vector_8" fill-rule="evenodd" clip-rule="evenodd" d="M86.101 16.0542C86.101 16.1985 86.0438 16.337 85.942 16.439C85.8402 16.5411 85.7022 16.5984 85.5582 16.5984H82.6544C82.5823 16.5996 82.5108 16.5864 82.4439 16.5596C82.377 16.5328 82.3161 16.4929 82.2647 16.4422C82.2133 16.3916 82.1725 16.3312 82.1447 16.2646C82.1169 16.198 82.1025 16.1265 82.1025 16.0542V1.13531C82.1025 1.06308 82.1169 0.991571 82.1447 0.924953C82.1725 0.858335 82.2133 0.79794 82.2647 0.74729C82.3161 0.69664 82.377 0.656749 82.4439 0.629943C82.5108 0.603136 82.5823 0.589949 82.6544 0.591153H85.3683C85.494 0.588166 85.6168 0.629036 85.7158 0.706781C85.8148 0.784526 85.8838 0.894322 85.911 1.01741V3.30286H85.9653C86.7795 1.25321 87.9193 0.273731 89.9276 0.273731C90.6036 0.249359 91.274 0.404225 91.8713 0.722699C92.4685 1.04117 92.9713 1.51198 93.329 2.08758C94.0889 3.28472 94.0889 5.2981 94.0889 6.74918V16.1268C94.0672 16.2597 93.9987 16.3804 93.8958 16.467C93.7928 16.5535 93.6623 16.6001 93.528 16.5984H90.5879C90.4599 16.5917 90.338 16.5413 90.2425 16.4555C90.147 16.3697 90.0838 16.2537 90.0633 16.1268V7.05753C90.0633 4.0284 88.9054 3.93771 88.254 3.93771C87.8945 3.96301 87.5486 4.08618 87.2537 4.29393C86.9588 4.50168 86.726 4.78616 86.5805 5.11671C86.2187 6.02348 86.0582 6.99831 86.11 7.97352V16.027L86.101 16.0542Z" fill="#232F3E"/>
</g>
</svg>
