<svg width="231" height="60" viewBox="0 0 231 60" fill="none" xmlns="http://www.w3.org/2000/svg">
<path d="M39.9 38.772V43.028H33.592V58H28.956V43.028H1.824L1.064 40.14L30.78 1.836H33.592V38.772H39.9ZM7.372 38.772H28.956V11.032L7.372 38.772ZM50.5905 59.216C48.4625 59.216 46.8665 57.62 46.8665 55.568C46.8665 53.516 48.4625 51.996 50.5905 51.996C52.5665 51.996 54.2385 53.516 54.2385 55.568C54.2385 57.696 52.5665 59.216 50.5905 59.216ZM78.6915 58.76C74.1315 58.76 68.8875 57.392 65.0115 54.124L67.0635 50.552C69.8755 52.832 74.1315 54.58 78.5395 54.58C92.2195 54.58 96.1715 39.38 95.7155 26.232H95.4875C93.8155 32.768 87.1275 37.784 79.6795 37.784C69.8755 37.784 62.1995 30.108 62.1995 19.62C62.1995 8.904 69.7995 0.847997 80.5915 0.847997C93.7395 0.847997 100.123 12.628 100.123 28.132C100.123 43.712 93.9675 58.76 78.6915 58.76ZM80.2115 33.604C87.6595 33.604 94.1195 27.296 94.1195 19.468C94.1195 11.944 88.1155 5.028 80.2115 5.028C72.7635 5.028 66.8355 11.108 66.8355 19.544C66.8355 27.676 72.6115 33.604 80.2115 33.604Z" fill="white"/>
<g clip-path="url(#clip0_2193_52705)">
<g filter="url(#filter0_d_2193_52705)">
<path d="M132.892 33.4188C132.797 33.5213 132.725 33.6433 132.682 33.7763C132.639 33.9093 132.625 34.0501 132.642 34.1889L133.604 39.6181C133.63 39.7773 133.611 39.9406 133.549 40.0896C133.488 40.2387 133.385 40.3674 133.254 40.4615C133.123 40.5556 132.969 40.6111 132.808 40.622C132.647 40.6329 132.486 40.5986 132.343 40.523L127.434 37.9335H127.357C127.245 37.8768 127.121 37.8473 126.996 37.8473C126.871 37.8473 126.747 37.8768 126.635 37.9335L121.755 40.4844C121.608 40.5629 121.441 40.5974 121.275 40.5836C121.109 40.5699 120.95 40.5085 120.818 40.4069C120.686 40.3053 120.586 40.1678 120.53 40.0108C120.474 39.8538 120.465 39.684 120.503 39.5218L121.264 35.0745L121.437 34.1119C121.463 33.9752 121.455 33.834 121.413 33.7012C121.371 33.5684 121.296 33.4482 121.196 33.3515L117.663 29.9438L117.259 29.5491C117.181 29.4706 117.121 29.3751 117.086 29.27C117.027 29.1482 116.997 29.0143 117 28.879C117.003 28.7438 117.038 28.6111 117.101 28.4918C117.165 28.3726 117.256 28.2701 117.368 28.1929C117.479 28.1157 117.606 28.0658 117.74 28.0474L123.189 27.2581C123.328 27.2411 123.46 27.19 123.574 27.1094C123.688 27.0287 123.781 26.9211 123.843 26.796L126.134 22.1851L126.298 21.8674C126.367 21.7205 126.477 21.5963 126.614 21.5093C126.751 21.4223 126.91 21.3761 127.073 21.3761C127.235 21.3761 127.395 21.4223 127.532 21.5093C127.669 21.5963 127.779 21.7205 127.848 21.8674L128.81 23.7927L130.274 26.7672C130.336 26.8913 130.427 26.9988 130.539 27.0808C130.651 27.1628 130.781 27.217 130.919 27.2388L131.612 27.3447L136.367 28.0474C136.526 28.0712 136.675 28.1388 136.798 28.2426C136.921 28.3464 137.013 28.4823 137.063 28.6352C137.113 28.7881 137.119 28.9518 137.081 29.1081C137.043 29.2644 136.963 29.4071 136.848 29.5202L133.113 33.2167L132.892 33.4188Z" fill="url(#paint0_linear_2193_52705)"/>
</g>
<g filter="url(#filter1_d_2193_52705)">
<path d="M156.866 33.4188C156.77 33.5213 156.699 33.6433 156.656 33.7763C156.612 33.9093 156.599 34.0501 156.615 34.1889L157.578 39.6181C157.604 39.7773 157.585 39.9406 157.523 40.0896C157.461 40.2387 157.359 40.3674 157.228 40.4615C157.097 40.5556 156.942 40.6111 156.781 40.622C156.62 40.6329 156.459 40.5986 156.317 40.523L151.408 37.9335H151.331C151.219 37.8768 151.095 37.8473 150.97 37.8473C150.844 37.8473 150.72 37.8768 150.609 37.9335L145.728 40.4844C145.581 40.5629 145.415 40.5974 145.249 40.5836C145.083 40.5699 144.924 40.5085 144.792 40.4069C144.66 40.3053 144.56 40.1678 144.504 40.0108C144.448 39.8538 144.439 39.684 144.477 39.5218L145.237 35.0745L145.41 34.1119C145.437 33.9752 145.429 33.834 145.386 33.7012C145.344 33.5684 145.27 33.4482 145.17 33.3515L141.637 29.9438L141.233 29.5491C141.154 29.4706 141.095 29.3751 141.059 29.27C141 29.1482 140.971 29.0143 140.974 28.879C140.977 28.7438 141.011 28.6111 141.075 28.4918C141.139 28.3726 141.23 28.2701 141.341 28.1929C141.452 28.1157 141.58 28.0658 141.714 28.0474L147.162 27.2581C147.301 27.2411 147.434 27.19 147.548 27.1094C147.662 27.0287 147.755 26.9211 147.817 26.796L150.108 22.1851L150.272 21.8674C150.341 21.7205 150.451 21.5963 150.588 21.5093C150.725 21.4223 150.884 21.3761 151.047 21.3761C151.209 21.3761 151.368 21.4223 151.505 21.5093C151.643 21.5963 151.752 21.7205 151.821 21.8674L152.784 23.7927L154.247 26.7672C154.31 26.8913 154.401 26.9988 154.513 27.0808C154.625 27.1628 154.755 27.217 154.892 27.2388L155.585 27.3447L160.341 28.0474C160.5 28.0712 160.649 28.1388 160.772 28.2426C160.895 28.3464 160.986 28.4823 161.036 28.6352C161.086 28.7881 161.093 28.9518 161.055 29.1081C161.017 29.2644 160.936 29.4071 160.822 29.5202L157.087 33.2167L156.866 33.4188Z" fill="url(#paint1_linear_2193_52705)"/>
</g>
<g filter="url(#filter2_d_2193_52705)">
<path d="M180.839 33.4188C180.744 33.5213 180.672 33.6433 180.629 33.7763C180.586 33.9093 180.572 34.0501 180.589 34.1889L181.552 39.6181C181.578 39.7773 181.559 39.9406 181.497 40.0896C181.435 40.2387 181.333 40.3674 181.202 40.4615C181.071 40.5556 180.916 40.6111 180.755 40.622C180.594 40.6329 180.433 40.5986 180.291 40.523L175.381 37.9335H175.304C175.192 37.8768 175.069 37.8473 174.943 37.8473C174.818 37.8473 174.694 37.8768 174.582 37.9335L169.702 40.4844C169.555 40.5629 169.388 40.5974 169.222 40.5836C169.056 40.5699 168.898 40.5085 168.765 40.4069C168.633 40.3053 168.533 40.1678 168.478 40.0108C168.422 39.8538 168.412 39.684 168.45 39.5218L169.211 35.0745L169.384 34.1119C169.41 33.9752 169.402 33.834 169.36 33.7012C169.318 33.5684 169.244 33.4482 169.143 33.3515L165.611 29.9438L165.206 29.5491C165.128 29.4706 165.069 29.3751 165.033 29.27C164.974 29.1482 164.945 29.0143 164.947 28.879C164.95 28.7438 164.985 28.6111 165.049 28.4918C165.113 28.3726 165.204 28.2701 165.315 28.1929C165.426 28.1157 165.554 28.0658 165.688 28.0474L171.136 27.2581C171.275 27.2411 171.407 27.19 171.521 27.1094C171.636 27.0287 171.728 26.9211 171.791 26.796L174.082 22.1851L174.245 21.8674C174.315 21.7205 174.424 21.5963 174.561 21.5093C174.699 21.4223 174.858 21.3761 175.02 21.3761C175.183 21.3761 175.342 21.4223 175.479 21.5093C175.616 21.5963 175.726 21.7205 175.795 21.8674L176.758 23.7927L178.221 26.7672C178.283 26.8913 178.374 26.9988 178.486 27.0808C178.599 27.1628 178.729 27.217 178.866 27.2388L179.559 27.3447L184.314 28.0474C184.473 28.0712 184.623 28.1388 184.746 28.2426C184.868 28.3464 184.96 28.4823 185.01 28.6352C185.06 28.7881 185.066 28.9518 185.028 29.1081C184.991 29.2644 184.91 29.4071 184.796 29.5202L181.061 33.2167L180.839 33.4188Z" fill="url(#paint2_linear_2193_52705)"/>
</g>
<g filter="url(#filter3_d_2193_52705)">
<path d="M204.813 33.4188C204.718 33.5213 204.646 33.6433 204.603 33.7763C204.56 33.9093 204.546 34.0501 204.563 34.1889L205.525 39.6181C205.551 39.7773 205.532 39.9406 205.47 40.0896C205.409 40.2387 205.306 40.3674 205.175 40.4615C205.044 40.5556 204.889 40.6111 204.728 40.622C204.568 40.6329 204.407 40.5986 204.264 40.523L199.355 37.9335H199.278C199.166 37.8768 199.042 37.8473 198.917 37.8473C198.791 37.8473 198.668 37.8768 198.556 37.9335L193.675 40.4844C193.528 40.5629 193.362 40.5974 193.196 40.5836C193.03 40.5699 192.871 40.5085 192.739 40.4069C192.607 40.3053 192.507 40.1678 192.451 40.0108C192.395 39.8538 192.386 39.684 192.424 39.5218L193.184 35.0745L193.358 34.1119C193.384 33.9752 193.376 33.834 193.334 33.7012C193.292 33.5684 193.217 33.4482 193.117 33.3515L189.584 29.9438L189.18 29.5491C189.102 29.4706 189.042 29.3751 189.007 29.27C188.948 29.1482 188.918 29.0143 188.921 28.879C188.924 28.7438 188.959 28.6111 189.022 28.4918C189.086 28.3726 189.177 28.2701 189.288 28.1929C189.4 28.1157 189.527 28.0658 189.661 28.0474L195.11 27.2581C195.248 27.2411 195.381 27.19 195.495 27.1094C195.609 27.0287 195.702 26.9211 195.764 26.796L198.055 22.1851L198.219 21.8674C198.288 21.7205 198.398 21.5963 198.535 21.5093C198.672 21.4223 198.831 21.3761 198.994 21.3761C199.156 21.3761 199.315 21.4223 199.453 21.5093C199.59 21.5963 199.7 21.7205 199.769 21.8674L200.731 23.7927L202.195 26.7672C202.257 26.8913 202.348 26.9988 202.46 27.0808C202.572 27.1628 202.702 27.217 202.84 27.2388L203.533 27.3447L208.288 28.0474C208.447 28.0712 208.596 28.1388 208.719 28.2426C208.842 28.3464 208.934 28.4823 208.984 28.6352C209.033 28.7881 209.04 28.9518 209.002 29.1081C208.964 29.2644 208.884 29.4071 208.769 29.5202L205.034 33.2167L204.813 33.4188Z" fill="url(#paint3_linear_2193_52705)"/>
</g>
<g filter="url(#filter4_d_2193_52705)">
<path d="M228.787 33.4188C228.691 33.5213 228.62 33.6433 228.576 33.7763C228.533 33.9093 228.52 34.0501 228.536 34.1889L229.499 39.6181C229.525 39.7773 229.506 39.9406 229.444 40.0896C229.382 40.2387 229.28 40.3674 229.149 40.4615C229.018 40.5556 228.863 40.6111 228.702 40.622C228.541 40.6329 228.38 40.5986 228.238 40.523L223.329 37.9335H223.251C223.14 37.8768 223.016 37.8473 222.891 37.8473C222.765 37.8473 222.641 37.8768 222.53 37.9335L217.649 40.4844C217.502 40.5629 217.336 40.5974 217.169 40.5836C217.003 40.5699 216.845 40.5085 216.713 40.4069C216.581 40.3053 216.481 40.1678 216.425 40.0108C216.369 39.8538 216.36 39.684 216.398 39.5218L217.158 35.0745L217.331 34.1119C217.358 33.9752 217.349 33.834 217.307 33.7012C217.265 33.5684 217.191 33.4482 217.091 33.3515L213.558 29.9438L213.154 29.5491C213.075 29.4706 213.016 29.3751 212.98 29.27C212.921 29.1482 212.892 29.0143 212.895 28.879C212.897 28.7438 212.932 28.6111 212.996 28.4918C213.06 28.3726 213.151 28.2701 213.262 28.1929C213.373 28.1157 213.501 28.0658 213.635 28.0474L219.083 27.2581C219.222 27.2411 219.355 27.19 219.469 27.1094C219.583 27.0287 219.675 26.9211 219.738 26.796L222.029 22.1851L222.193 21.8674C222.262 21.7205 222.372 21.5963 222.509 21.5093C222.646 21.4223 222.805 21.3761 222.968 21.3761C223.13 21.3761 223.289 21.4223 223.426 21.5093C223.563 21.5963 223.673 21.7205 223.742 21.8674L224.705 23.7927L226.168 26.7672C226.231 26.8913 226.322 26.9988 226.434 27.0808C226.546 27.1628 226.676 27.217 226.813 27.2388L227.506 27.3447L232.262 28.0474C232.421 28.0712 232.57 28.1388 232.693 28.2426C232.816 28.3464 232.907 28.4823 232.957 28.6352C233.007 28.7881 233.014 28.9518 232.976 29.1081C232.938 29.2644 232.857 29.4071 232.743 29.5202L229.008 33.2167L228.787 33.4188Z" fill="url(#paint4_linear_2193_52705)"/>
</g>
</g>
<defs>
<filter id="filter0_d_2193_52705" x="107.606" y="11.9819" width="38.8938" height="38.0363" filterUnits="userSpaceOnUse" color-interpolation-filters="sRGB">
<feFlood flood-opacity="0" result="BackgroundImageFix"/>
<feColorMatrix in="SourceAlpha" type="matrix" values="0 0 0 0 0 0 0 0 0 0 0 0 0 0 0 0 0 0 127 0" result="hardAlpha"/>
<feOffset/>
<feGaussianBlur stdDeviation="4.6971"/>
<feComposite in2="hardAlpha" operator="out"/>
<feColorMatrix type="matrix" values="0 0 0 0 1 0 0 0 0 0.792157 0 0 0 0 0.380392 0 0 0 0.2 0"/>
<feBlend mode="normal" in2="BackgroundImageFix" result="effect1_dropShadow_2193_52705"/>
<feBlend mode="normal" in="SourceGraphic" in2="effect1_dropShadow_2193_52705" result="shape"/>
</filter>
<filter id="filter1_d_2193_52705" x="131.579" y="11.9819" width="38.8938" height="38.0363" filterUnits="userSpaceOnUse" color-interpolation-filters="sRGB">
<feFlood flood-opacity="0" result="BackgroundImageFix"/>
<feColorMatrix in="SourceAlpha" type="matrix" values="0 0 0 0 0 0 0 0 0 0 0 0 0 0 0 0 0 0 127 0" result="hardAlpha"/>
<feOffset/>
<feGaussianBlur stdDeviation="4.6971"/>
<feComposite in2="hardAlpha" operator="out"/>
<feColorMatrix type="matrix" values="0 0 0 0 1 0 0 0 0 0.792157 0 0 0 0 0.380392 0 0 0 0.2 0"/>
<feBlend mode="normal" in2="BackgroundImageFix" result="effect1_dropShadow_2193_52705"/>
<feBlend mode="normal" in="SourceGraphic" in2="effect1_dropShadow_2193_52705" result="shape"/>
</filter>
<filter id="filter2_d_2193_52705" x="155.553" y="11.9819" width="38.8938" height="38.0363" filterUnits="userSpaceOnUse" color-interpolation-filters="sRGB">
<feFlood flood-opacity="0" result="BackgroundImageFix"/>
<feColorMatrix in="SourceAlpha" type="matrix" values="0 0 0 0 0 0 0 0 0 0 0 0 0 0 0 0 0 0 127 0" result="hardAlpha"/>
<feOffset/>
<feGaussianBlur stdDeviation="4.6971"/>
<feComposite in2="hardAlpha" operator="out"/>
<feColorMatrix type="matrix" values="0 0 0 0 1 0 0 0 0 0.792157 0 0 0 0 0.380392 0 0 0 0.2 0"/>
<feBlend mode="normal" in2="BackgroundImageFix" result="effect1_dropShadow_2193_52705"/>
<feBlend mode="normal" in="SourceGraphic" in2="effect1_dropShadow_2193_52705" result="shape"/>
</filter>
<filter id="filter3_d_2193_52705" x="179.527" y="11.9819" width="38.8938" height="38.0363" filterUnits="userSpaceOnUse" color-interpolation-filters="sRGB">
<feFlood flood-opacity="0" result="BackgroundImageFix"/>
<feColorMatrix in="SourceAlpha" type="matrix" values="0 0 0 0 0 0 0 0 0 0 0 0 0 0 0 0 0 0 127 0" result="hardAlpha"/>
<feOffset/>
<feGaussianBlur stdDeviation="4.6971"/>
<feComposite in2="hardAlpha" operator="out"/>
<feColorMatrix type="matrix" values="0 0 0 0 1 0 0 0 0 0.792157 0 0 0 0 0.380392 0 0 0 0.2 0"/>
<feBlend mode="normal" in2="BackgroundImageFix" result="effect1_dropShadow_2193_52705"/>
<feBlend mode="normal" in="SourceGraphic" in2="effect1_dropShadow_2193_52705" result="shape"/>
</filter>
<filter id="filter4_d_2193_52705" x="203.5" y="11.9819" width="38.8938" height="38.0363" filterUnits="userSpaceOnUse" color-interpolation-filters="sRGB">
<feFlood flood-opacity="0" result="BackgroundImageFix"/>
<feColorMatrix in="SourceAlpha" type="matrix" values="0 0 0 0 0 0 0 0 0 0 0 0 0 0 0 0 0 0 127 0" result="hardAlpha"/>
<feOffset/>
<feGaussianBlur stdDeviation="4.6971"/>
<feComposite in2="hardAlpha" operator="out"/>
<feColorMatrix type="matrix" values="0 0 0 0 1 0 0 0 0 0.792157 0 0 0 0 0.380392 0 0 0 0.2 0"/>
<feBlend mode="normal" in2="BackgroundImageFix" result="effect1_dropShadow_2193_52705"/>
<feBlend mode="normal" in="SourceGraphic" in2="effect1_dropShadow_2193_52705" result="shape"/>
</filter>
<linearGradient id="paint0_linear_2193_52705" x1="127.053" y1="16.0055" x2="127.053" y2="44.8789" gradientUnits="userSpaceOnUse">
<stop offset="0.271744" stop-color="#F7B22B"/>
<stop offset="0.667277" stop-color="#FFCA61"/>
<stop offset="1" stop-color="#F7EFE1"/>
</linearGradient>
<linearGradient id="paint1_linear_2193_52705" x1="151.026" y1="16.0055" x2="151.026" y2="44.8789" gradientUnits="userSpaceOnUse">
<stop offset="0.271744" stop-color="#F7B22B"/>
<stop offset="0.667277" stop-color="#FFCA61"/>
<stop offset="1" stop-color="#F7EFE1"/>
</linearGradient>
<linearGradient id="paint2_linear_2193_52705" x1="175" y1="16.0055" x2="175" y2="44.8789" gradientUnits="userSpaceOnUse">
<stop offset="0.271744" stop-color="#F7B22B"/>
<stop offset="0.667277" stop-color="#FFCA61"/>
<stop offset="1" stop-color="#F7EFE1"/>
</linearGradient>
<linearGradient id="paint3_linear_2193_52705" x1="198.974" y1="16.0055" x2="198.974" y2="44.8789" gradientUnits="userSpaceOnUse">
<stop offset="0.271744" stop-color="#F7B22B"/>
<stop offset="0.667277" stop-color="#FFCA61"/>
<stop offset="1" stop-color="#F7EFE1"/>
</linearGradient>
<linearGradient id="paint4_linear_2193_52705" x1="222.947" y1="16.0055" x2="222.947" y2="44.8789" gradientUnits="userSpaceOnUse">
<stop offset="0.271744" stop-color="#F7B22B"/>
<stop offset="0.667277" stop-color="#FFCA61"/>
<stop offset="1" stop-color="#F7EFE1"/>
</linearGradient>
<clipPath id="clip0_2193_52705">
<rect width="114" height="19.2479" fill="white" transform="translate(117 21.3761)"/>
</clipPath>
</defs>
</svg>
