<svg width="65" height="52" viewBox="0 0 65 52" fill="none" xmlns="http://www.w3.org/2000/svg">
<path d="M4.7824 50.4195C4.08031 50.3317 0.394362 49.8051 0.789285 48.1377C0.964806 47.3917 5.96717 46.6019 7.15193 46.4264C10.1358 45.9876 10.2674 46.8213 13.2952 47.0846C13.7779 47.0846 14.2605 47.2162 14.6994 47.4356C16.4546 48.5326 12.7686 50.7705 11.3206 50.8583C9.12655 50.946 6.93253 50.8144 4.7824 50.4195Z" stroke="#202188" stroke-width="0.658205" stroke-linecap="round" stroke-linejoin="round"/>
<path d="M4.7824 50.4195C4.08031 50.3317 0.394362 49.8051 0.789285 48.1377C0.964806 47.3917 5.96717 46.6019 7.15193 46.4264C10.1358 45.9876 10.2674 46.8213 13.2952 47.0846C13.7779 47.0846 14.2605 47.2162 14.6994 47.4356C16.4546 48.5326 12.7686 50.7705 11.3206 50.8583C9.12655 50.946 6.93253 50.8144 4.7824 50.4195Z" fill="black"/>
<path d="M61.7291 2.32177L60.2976 1.36878C60.1241 1.23883 59.9072 1.06556 59.6903 0.97892C58.8661 0.502424 57.8684 0.415788 56.9141 0.632377L9.50149 12.3282C8.6773 12.5448 7.89649 13.0213 7.37595 13.7144C6.85541 14.4075 6.55176 15.2305 6.55176 16.0968V45.6829C6.55176 46.2894 6.68189 46.8958 6.98554 47.459C7.28919 48.0221 7.6796 48.4986 8.20014 48.8451L8.33027 48.9318L8.37365 48.9751L10.4124 50.3179C10.4124 50.3179 11.3234 49.4083 11.3668 49.4083L61.7291 2.32177Z" fill="black"/>
<path d="M61.6749 2.27174L60.2448 1.31835C60.0714 1.18834 59.8548 1.015 59.6381 0.928329C58.8147 0.451635 57.818 0.364964 56.8646 0.581643L9.49859 12.2823C8.67521 12.499 7.89517 12.9757 7.37514 13.669C6.85511 14.3624 6.55176 15.1858 6.55176 16.0525V45.6508C6.55176 46.2575 6.68177 46.8642 6.98512 47.4276C7.28847 47.991 7.67849 48.4677 8.19852 48.8144L8.32852 48.901L8.37186 48.9444L10.4086 50.2878C10.4086 50.2878 11.3187 49.3777 11.362 49.3777" stroke="#202188" stroke-width="0.650037" stroke-linecap="round" stroke-linejoin="round"/>
<path d="M61.6749 2.27174L60.2448 1.31835C60.0714 1.18834 59.8548 1.015 59.6381 0.928329C58.8147 0.451635 57.818 0.364964 56.8646 0.581643L9.49859 12.2823C8.67521 12.499 7.89517 12.9757 7.37514 13.669C6.85511 14.3624 6.55176 15.1858 6.55176 16.0525V45.6508C6.55176 46.2575 6.68177 46.8642 6.98512 47.4276C7.28847 47.991 7.67849 48.4677 8.19852 48.8144L8.32852 48.901L8.37186 48.9444L10.4086 50.2878C10.4086 50.2878 11.3187 49.3777 11.362 49.3777" stroke="url(#paint0_linear_6250_1336)" stroke-opacity="0.35" stroke-width="0.650037" stroke-linecap="round" stroke-linejoin="round" style="mix-blend-mode:multiply"/>
<path d="M63.7592 5.00326V34.9735C63.7592 35.8511 63.4521 36.6849 62.9255 37.387C62.3989 38.1329 61.653 38.6156 60.7754 38.835L37.0927 44.6851L31.8529 45.9796L12.8141 50.6827C12.2437 50.8143 11.6294 50.8143 11.0589 50.7266C10.4885 50.5949 9.91804 50.3317 9.47924 49.9806C8.99655 49.6296 8.64551 49.1469 8.38223 48.6203C8.11895 48.0938 7.9873 47.4794 7.9873 46.909V16.8948C7.9873 16.0172 8.29447 15.1835 8.82103 14.4814C9.3476 13.7793 10.1374 13.2966 10.9712 13.0772L58.9324 1.22956C59.5028 1.09791 60.1171 1.09791 60.6876 1.18568C61.258 1.31732 61.8285 1.5806 62.2673 1.93164C62.75 2.28268 63.101 2.76537 63.3643 3.29193C63.6276 3.8185 63.7592 4.43282 63.7592 5.00326Z" fill="url(#paint1_linear_6250_1336)"/>
<path fill-rule="evenodd" clip-rule="evenodd" d="M63.7598 6.48995V11.7815C60.5034 10.4365 56.5761 10.1987 52.3715 11.3694C42.5243 14.1115 34.585 23.8095 34.0282 33.7809C33.7851 38.1299 34.9484 41.8676 37.0932 44.6852C37.1292 44.733 37.1656 44.7804 37.2025 44.8273L37.1955 44.8291L31.8943 46.0529C31.8807 46.0283 31.8671 46.0042 31.8535 45.9796C30.2795 43.1537 29.3936 39.7679 29.3936 35.9714C29.3936 21.874 41.5897 7.80899 56.0061 6.05597C58.7596 5.72117 61.3709 5.8866 63.7598 6.48995Z" fill="url(#paint2_linear_6250_1336)"/>
<g style="mix-blend-mode:overlay" opacity="0.42">
<path d="M63.7592 5.00327V34.9735C63.7592 35.8511 63.4521 36.6849 62.9255 37.387C62.3989 38.1329 61.653 38.6156 60.7754 38.835L37.0927 44.6851L31.8529 45.9796L12.8141 50.6827C12.2437 50.8143 11.6294 50.8143 11.0589 50.7266C10.4885 50.5949 9.91804 50.3317 9.47924 49.9806C8.99655 49.6296 8.64551 49.1469 8.38223 48.6203C8.11895 48.0938 7.9873 47.4794 7.9873 46.909V16.8948C7.9873 16.0172 8.29447 15.1835 8.82103 14.4814C9.3476 13.7793 10.1374 13.2966 10.9712 13.0772L58.9324 1.22956C59.5028 1.09791 60.1171 1.09791 60.6876 1.18568C61.258 1.31732 61.8285 1.5806 62.2673 1.93164C62.75 2.28268 63.101 2.76537 63.3643 3.29193C63.6276 3.8185 63.7592 4.43282 63.7592 5.00327Z" fill="url(#paint3_linear_6250_1336)" fill-opacity="0.8"/>
</g>
<path fill-rule="evenodd" clip-rule="evenodd" d="M50.7157 37.5936C50.5972 37.623 50.534 37.5835 50.5327 37.4874C50.5296 37.3128 50.7284 37.204 51.0966 37.0754C51.1058 37.308 50.9474 37.5362 50.7148 37.5941H50.7157V37.5936ZM50.8526 36.243C50.5774 36.3115 50.2593 36.5107 50.0921 36.677L50.2527 36.9407C50.3905 36.7915 50.6086 36.6357 50.8135 36.5848C51.004 36.5374 51.115 36.569 51.1167 36.6884C51.1181 36.7661 51.0492 36.8249 50.914 36.8771C50.4151 37.0658 50.032 37.2856 50.0382 37.634C50.043 37.9135 50.2606 38.0259 50.5959 37.942C50.8359 37.8824 51.0483 37.7047 51.1461 37.5195L51.1501 37.7582L51.556 37.6568L51.5389 36.6568C51.5367 36.2386 51.2374 36.1425 50.8521 36.2434V36.2426L50.8526 36.243Z" fill="white"/>
<path fill-rule="evenodd" clip-rule="evenodd" d="M54.0347 35.5049L53.6288 35.6063L53.6262 35.4557C53.6341 35.246 53.7481 35.1569 53.8495 35.1315C53.9188 35.1144 53.9882 35.1157 54.0483 35.1337L54.1812 34.78C54.1812 34.78 54.0413 34.7199 53.7925 34.7822C53.5068 34.8581 53.1869 35.0977 53.1869 35.6128L53.1891 35.7497L52.5125 35.9182L52.5098 35.7581C52.5063 35.5514 52.6209 35.4619 52.7227 35.4364C52.7924 35.4193 52.8622 35.4206 52.9223 35.4386L53.0561 35.085C52.9719 35.0591 52.842 35.0437 52.6656 35.0876C52.3835 35.1578 52.0618 35.4026 52.0706 35.9103L52.0719 35.9937L51.835 36.0525L51.8415 36.4264L52.0785 36.3676L52.0996 37.5905L52.5397 37.4808L52.5186 36.2579L53.1953 36.0894L53.2163 37.3123L53.6564 37.2026L53.6354 35.9797L54.0413 35.8783L54.0347 35.5045" fill="white"/>
<path d="M54.778 35.2856L54.3379 35.3953L54.366 37.0259L54.8061 36.9162L54.778 35.2856Z" fill="white"/>
<path fill-rule="evenodd" clip-rule="evenodd" d="M55.084 35.2433L55.1116 36.8402L55.5855 36.7221L55.5724 35.9542C55.5702 35.5896 55.8001 35.4281 55.9664 35.3868C56.0423 35.368 56.113 35.3693 56.1744 35.3921L56.2578 34.9493C56.1871 34.9428 56.1165 34.9463 56.0406 34.9651C55.7931 35.0266 55.6391 35.1692 55.5289 35.4053L55.5241 35.1332L55.084 35.2376" fill="white"/>
<path fill-rule="evenodd" clip-rule="evenodd" d="M58.3581 34.3878C58.1119 34.4492 57.9307 34.6361 57.8412 34.7954C57.7512 34.6427 57.5617 34.5861 57.3339 34.6427C57.0878 34.7042 56.9206 34.8775 56.8469 35.0521L56.8425 34.8051L56.4023 34.9148L56.4291 36.4778L56.903 36.3598L56.8894 35.5717C56.8749 35.2825 57.0268 35.1026 57.1768 35.0653C57.3076 35.0328 57.4344 35.0859 57.4621 35.2922L57.4787 36.2509L57.9189 36.1412L57.9048 35.3273C57.8995 35.0306 58.0479 34.8569 58.194 34.8204C58.3116 34.791 58.4401 34.8441 58.4441 35.0561L58.4603 36.0065L58.9342 35.8885L58.9154 34.7836C58.904 34.4317 58.6552 34.3145 58.3612 34.3878" fill="white"/>
<path fill-rule="evenodd" clip-rule="evenodd" d="M54.3564 35.1517L54.7882 35.0442C55.0269 34.1653 55.8699 33.2307 56.8866 32.9775C58.124 32.6694 59.2079 33.3759 59.2342 34.8893C59.2443 35.1961 59.2079 35.5159 59.1254 35.8407L59.5435 35.7367L59.5484 35.7213C59.6124 35.4102 59.644 35.0969 59.6388 34.7937C59.6098 33.1047 58.3978 32.1872 56.8756 32.5663C55.6847 32.8629 54.6364 33.9819 54.3564 35.1522V35.1517Z" fill="white"/>
<path d="M60.7539 38.9229L12.7927 50.7706C12.2222 50.9022 11.6079 50.9022 11.0374 50.8145C10.467 50.6828 9.89656 50.4195 9.45775 50.0685C8.97507 49.7175 8.62403 49.2348 8.36074 48.7082C8.09746 48.1816 7.96582 47.5673 7.96582 46.9969V16.9827C7.96582 16.1051 8.27298 15.2714 8.79955 14.5693C9.32611 13.8672 10.116 13.3845 10.9497 13.1651L58.9109 1.31745C59.4813 1.18581 60.0957 1.18581 60.6661 1.27357C61.2366 1.40521 61.807 1.66849 62.2458 2.01953C62.7285 2.37057 63.0795 2.85326 63.3428 3.37982C63.6061 3.90639 63.7377 4.52071 63.7377 5.09116V35.0614C63.7377 35.939 63.4306 36.7728 62.904 37.4748C62.3774 38.2208 61.6315 38.7035 60.7539 38.9229Z" stroke="#202188" stroke-width="0.658205" stroke-linecap="round" stroke-linejoin="round"/>
<path d="M60.7539 38.9229L12.7927 50.7706C12.2222 50.9022 11.6079 50.9022 11.0374 50.8145C10.467 50.6828 9.89656 50.4195 9.45775 50.0685C8.97507 49.7175 8.62403 49.2348 8.36074 48.7082C8.09746 48.1816 7.96582 47.5673 7.96582 46.9969V16.9827C7.96582 16.1051 8.27298 15.2714 8.79955 14.5693C9.32611 13.8672 10.116 13.3845 10.9497 13.1651L58.9109 1.31745C59.4813 1.18581 60.0957 1.18581 60.6661 1.27357C61.2366 1.40521 61.807 1.66849 62.2458 2.01953C62.7285 2.37057 63.0795 2.85326 63.3428 3.37982C63.6061 3.90639 63.7377 4.52071 63.7377 5.09116V35.0614C63.7377 35.939 63.4306 36.7728 62.904 37.4748C62.3774 38.2208 61.6315 38.7035 60.7539 38.9229Z" stroke="url(#paint4_linear_6250_1336)" stroke-opacity="0.35" stroke-width="0.658205" stroke-linecap="round" stroke-linejoin="round" style="mix-blend-mode:multiply"/>
<path d="M20.9319 29.4568L14.4814 31.0365H14.262C14.1743 31.0365 14.1304 30.9926 14.0426 30.9487C13.9988 30.9049 13.911 30.8171 13.911 30.7732C13.8232 30.6855 13.8232 30.5977 13.8232 30.5099V26.2535C13.8232 26.1219 13.8671 26.0341 13.9549 25.9464C14.0426 25.8586 14.1304 25.7709 14.262 25.7709L20.7125 24.1912H20.9319C21.0196 24.1912 21.0635 24.235 21.1513 24.2789C21.239 24.3228 21.2829 24.4106 21.2829 24.4544C21.3268 24.5422 21.3268 24.5861 21.3268 24.6738V28.9302C21.3268 29.0619 21.2829 29.1496 21.1951 29.2374C21.1074 29.3252 21.0196 29.4129 20.9319 29.4568Z" fill="black"/>
<mask id="mask0_6250_1336" style="mask-type:alpha" maskUnits="userSpaceOnUse" x="13" y="24" width="9" height="8">
<path d="M20.885 29.4551L14.4346 31.0348H14.2152C14.1274 31.0348 14.0835 30.9909 13.9958 30.947C13.9519 30.9031 13.8641 30.8154 13.8641 30.7715C13.7764 30.6837 13.7764 30.596 13.7764 30.5082V26.2518C13.7764 26.1202 13.8202 26.0324 13.908 25.9447C13.9958 25.8569 14.0835 25.7691 14.2152 25.7691L20.6656 24.1895H20.885C20.9727 24.1895 21.0166 24.2333 21.1044 24.2772C21.1921 24.3211 21.236 24.4089 21.236 24.4527C21.2799 24.5405 21.2799 24.5844 21.2799 24.6721V28.9285C21.2799 29.0602 21.236 29.1479 21.1483 29.2357C21.0605 29.3235 20.9727 29.4112 20.885 29.4551Z" fill="black"/>
</mask>
<g mask="url(#mask0_6250_1336)">
<path d="M20.885 29.4551L14.4346 31.0348H14.2152C14.1274 31.0348 14.0835 30.9909 13.9958 30.947C13.9519 30.9031 13.8641 30.8154 13.8641 30.7715C13.7764 30.6837 13.7764 30.596 13.7764 30.5082V26.2518C13.7764 26.1202 13.8202 26.0324 13.908 25.9447C13.9958 25.8569 14.0835 25.7691 14.2152 25.7691L20.6656 24.1895H20.885C20.9727 24.1895 21.0166 24.2333 21.1044 24.2772C21.1921 24.3211 21.236 24.4089 21.236 24.4527C21.2799 24.5405 21.2799 24.5844 21.2799 24.6721V28.9285C21.2799 29.0602 21.236 29.1479 21.1483 29.2357C21.0605 29.3235 20.9727 29.4112 20.885 29.4551Z" fill="#F3F4F6"/>
<path d="M27.7777 38.0777L8.3493 35.8117L11.9192 25.9013L23.9984 28.5211C25.0831 28.7964 25.9527 29.3405 26.7118 30.1911C27.3661 31.0039 27.8052 32.0855 27.7884 33.1183L27.7777 38.0777Z" fill="#E5E7EB"/>
</g>
<g opacity="0.4">
<path d="M16.85 30.491V28.951C16.85 28.6534 16.5881 28.4352 16.3174 28.5065L14.6982 28.8772" stroke="#BCBCBC" stroke-width="0.0768486" stroke-linecap="round" stroke-linejoin="round" style="mix-blend-mode:multiply"/>
</g>
<g opacity="0.4">
<path d="M16.8504 25.2654V26.504C16.8504 26.8082 16.6441 27.0731 16.3509 27.146L14.5449 27.5708" stroke="#BCBCBC" stroke-width="0.0768486" stroke-linecap="round" stroke-linejoin="round" style="mix-blend-mode:multiply"/>
</g>
<g opacity="0.4">
<path d="M18.2667 24.958L18.2335 26.4316C18.2302 26.5699 18.3547 26.674 18.4859 26.6433L20.3852 26.1876" stroke="#BCBCBC" stroke-width="0.0768486" stroke-linecap="round" stroke-linejoin="round" style="mix-blend-mode:multiply"/>
</g>
<g opacity="0.4">
<path d="M18.2334 30.1838V28.5303C18.2334 28.2238 18.4369 27.958 18.724 27.8901L20.5389 27.4172" stroke="#BCBCBC" stroke-width="0.0768486" stroke-linecap="round" stroke-linejoin="round" style="mix-blend-mode:multiply"/>
</g>
<path d="M20.9104 29.4351L14.46 31.0148H14.2406C14.1528 31.0148 14.1089 30.9709 14.0212 30.927C13.9773 30.8831 13.8895 30.7954 13.8895 30.7515C13.8018 30.6637 13.8018 30.576 13.8018 30.4882V26.2318C13.8018 26.1002 13.8456 26.0124 13.9334 25.9246C14.0212 25.8369 14.1089 25.7491 14.2406 25.7491L20.691 24.1694H20.9104C20.9981 24.1694 21.042 24.2133 21.1298 24.2572C21.2175 24.3011 21.2614 24.3888 21.2614 24.4327C21.3053 24.5205 21.3053 24.5644 21.3053 24.6521V28.9085C21.3053 29.0402 21.2614 29.1279 21.1737 29.2157C21.0859 29.3034 20.9981 29.3912 20.9104 29.4351Z" stroke="#202188" stroke-width="0.461092" stroke-linecap="round" stroke-linejoin="round"/>
<defs>
<linearGradient id="paint0_linear_6250_1336" x1="54.8979" y1="-1.59457" x2="4.35184" y2="50.3176" gradientUnits="userSpaceOnUse">
<stop stop-opacity="0"/>
<stop offset="1"/>
</linearGradient>
<linearGradient id="paint1_linear_6250_1336" x1="1.69574" y1="29.6157" x2="48.9584" y2="24.555" gradientUnits="userSpaceOnUse">
<stop/>
<stop offset="1" stop-color="#4D4DF1"/>
</linearGradient>
<linearGradient id="paint2_linear_6250_1336" x1="63.9954" y1="11.989" x2="27.2316" y2="36.6669" gradientUnits="userSpaceOnUse">
<stop offset="0.37" stop-color="#2C2C97" stop-opacity="0.7"/>
<stop offset="1" stop-opacity="0.69"/>
</linearGradient>
<linearGradient id="paint3_linear_6250_1336" x1="9.5218" y1="44.2955" x2="67.7308" y2="3.78866" gradientUnits="userSpaceOnUse">
<stop stop-opacity="0"/>
<stop offset="0.52" stop-color="white"/>
<stop offset="1" stop-opacity="0"/>
</linearGradient>
<linearGradient id="paint4_linear_6250_1336" x1="65.9562" y1="-8.47114" x2="7.93553" y2="52.5467" gradientUnits="userSpaceOnUse">
<stop stop-opacity="0"/>
<stop offset="1"/>
</linearGradient>
</defs>
</svg>
