<svg width="60" height="60" viewBox="0 0 60 60" fill="none" xmlns="http://www.w3.org/2000/svg">
<g clip-path="url(#clip0_2193_52723)">
<path d="M47.856 46.6595C51.2217 40.8842 52.1559 34.0085 50.4532 27.5444C48.7504 21.0804 44.5502 15.5574 38.776 12.1896C36.5479 10.8884 34.133 9.93725 31.616 9.36951V8.78955C31.616 8.78955 25.426 8.78955 24.396 8.78955C20.2785 9.06041 16.2906 10.3382 12.7824 12.5107C9.27424 14.6833 6.35327 17.6841 4.27605 21.2495C0.910726 27.0276 -0.0221625 33.9057 1.68242 40.3715C3.387 46.8372 7.58948 52.3615 13.366 55.7295C16.4304 57.5167 19.8385 58.6345 23.366 59.0095C24.846 59.1595 31.606 59.1395 31.606 59.1395C31.606 59.1395 43.846 53.5395 47.856 46.6595Z" fill="#FFE98F" stroke="#212189" stroke-width="1.5" stroke-linecap="round" stroke-linejoin="round"/>
<path d="M31.686 59.2095C45.6091 59.2095 56.896 47.9226 56.896 33.9995C56.896 20.0765 45.6091 8.78955 31.686 8.78955C17.7629 8.78955 6.47607 20.0765 6.47607 33.9995C6.47607 47.9226 17.7629 59.2095 31.686 59.2095Z" fill="#FCF9E8" stroke="#212189" stroke-width="1.5" stroke-linecap="round" stroke-linejoin="round"/>
<path d="M21.642 29.0063C21.6698 27.3331 20.3359 25.9542 18.6627 25.9265C16.9895 25.8987 15.6106 27.2326 15.5828 28.9058L15.3524 42.8039C15.3246 44.4771 16.6585 45.8561 18.3317 45.8838C20.0049 45.9115 21.3838 44.5776 21.4116 42.9044L21.642 29.0063Z" fill="#FFCA61" stroke="#212189" stroke-width="1.5" stroke-linecap="round" stroke-linejoin="round"/>
<path d="M21.436 43.6495L25.676 45.6495C29.416 47.1395 32.516 46.7295 36.016 46.7895H39.176C39.8978 46.8027 40.6152 46.6735 41.287 46.4091C41.9588 46.1448 42.5718 45.7506 43.0911 45.249C43.6103 44.7474 44.0255 44.1483 44.3129 43.486C44.6003 42.8238 44.7543 42.1113 44.766 41.3895L44.916 32.3895C44.9348 31.1331 44.4549 29.9204 43.5815 29.017C42.7081 28.1136 41.5123 27.5932 40.256 27.5695L34.356 27.4694C33.9804 27.4649 33.6109 27.3741 33.276 27.204C32.9411 27.034 32.6499 26.7892 32.4247 26.4886C32.1995 26.188 32.0463 25.8397 31.9772 25.4705C31.9081 25.1013 31.9248 24.7211 32.026 24.3594L33.106 20.4195C33.2051 20.0579 33.2202 19.6784 33.1503 19.31C33.0803 18.9416 32.9271 18.5942 32.7023 18.2941C32.4775 17.9941 32.187 17.7493 31.8531 17.5787C31.5193 17.408 31.1509 17.316 30.776 17.3095C30.3622 17.303 29.9536 17.4013 29.5881 17.5954C29.2227 17.7895 28.9123 18.073 28.686 18.4195L21.686 29.0595L21.436 43.6495Z" fill="white" stroke="#212189" stroke-width="1.5" stroke-linecap="round" stroke-linejoin="round"/>
<path d="M36.7061 17.5196L40.056 12.1195C40.1408 11.981 40.1905 11.8241 40.2009 11.662C40.2114 11.5 40.1822 11.3379 40.116 11.1896L37.566 5.36954C37.4923 5.19915 37.4673 5.01165 37.4941 4.82792C37.5209 4.64418 37.5984 4.47148 37.7178 4.32926C37.8372 4.18704 37.9937 4.08085 38.17 4.02262C38.3464 3.96439 38.5353 3.95641 38.7159 3.99955L44.896 5.50956C45.0534 5.54689 45.2175 5.54547 45.3743 5.50541C45.531 5.46535 45.6758 5.38786 45.796 5.27958L50.536 1.0496C50.6756 0.922974 50.8481 0.838394 51.0337 0.805579C51.2193 0.772763 51.4104 0.792974 51.585 0.86405C51.7595 0.935126 51.9104 1.05419 52.0203 1.20731C52.1301 1.36044 52.1946 1.54141 52.2061 1.72953L52.676 8.06962C52.6876 8.23113 52.7383 8.38733 52.8236 8.52494C52.909 8.66255 53.0265 8.77737 53.166 8.85953L58.656 12.0596C58.8173 12.154 58.9488 12.2916 59.0358 12.4569C59.1228 12.6223 59.1617 12.8087 59.1482 12.995C59.1347 13.1814 59.0692 13.3602 58.9592 13.5113C58.8493 13.6623 58.6992 13.7794 58.526 13.8495L52.646 16.2596C52.496 16.3205 52.3631 16.4169 52.2585 16.5406C52.154 16.6642 52.0811 16.8114 52.046 16.9695L50.696 23.1796C50.6558 23.3616 50.5656 23.5287 50.4354 23.6621C50.3053 23.7956 50.1404 23.8899 49.9595 23.9346C49.7785 23.9793 49.5887 23.9726 49.4114 23.9152C49.2341 23.8578 49.0764 23.7518 48.9561 23.6095L44.846 18.7596C44.7416 18.636 44.6089 18.5396 44.4591 18.4787C44.3093 18.4177 44.1469 18.394 43.986 18.4096L37.656 19.0396C37.4705 19.058 37.2835 19.0242 37.1162 18.9421C36.9489 18.8599 36.808 18.7326 36.7092 18.5745C36.6104 18.4164 36.5577 18.2339 36.5571 18.0475C36.5566 17.8611 36.6082 17.6782 36.7061 17.5196Z" fill="#A8A9FC" stroke="#212189" stroke-width="1.5" stroke-linecap="round" stroke-linejoin="round"/>
</g>
<defs>
<clipPath id="clip0_2193_52723">
<rect width="60" height="60" fill="white"/>
</clipPath>
</defs>
</svg>
