<svg width="92" height="36" viewBox="0 0 92 36" fill="none" xmlns="http://www.w3.org/2000/svg">
<g clip-path="url(#clip0_6370_1390)">
<path d="M11.9187 7.87134C5.43396 7.87134 0.0302734 10.5554 0.0302734 18.6531C0.0302734 25.0683 3.66386 29.1082 12.0861 29.1082C21.9995 29.1082 22.6349 22.7372 22.6349 22.7372H17.8314C17.8314 22.7372 16.8015 26.1677 11.7931 26.1677C7.71381 26.1677 4.77985 23.4792 4.77985 19.7109H23.1373V17.3463C23.1373 13.6182 20.7115 7.87134 11.9187 7.87134ZM11.7512 10.8935C15.6342 10.8935 18.2814 13.2144 18.2814 16.6928H4.88609C4.88609 13 8.34136 10.8935 11.7512 10.8935Z" fill="#E53238"/>
<path d="M23.1341 0.0300293V25.0416C23.1341 26.4613 23.0303 28.4548 23.0303 28.4548H27.6118C27.6118 28.4548 27.7762 27.023 27.7762 25.7146C27.7762 25.7146 30.0398 29.1695 36.1946 29.1695C42.6759 29.1695 47.0783 24.7794 47.0783 18.4898C47.0783 12.6386 43.0345 7.9326 36.2051 7.9326C29.8098 7.9326 27.8225 11.3019 27.8225 11.3019V0.0300293H23.1341ZM35.0225 11.0262C39.4238 11.0262 42.2225 14.2131 42.2225 18.4898C42.2225 23.0757 38.9901 26.0758 35.0539 26.0758C30.3564 26.0758 27.8225 22.4975 27.8225 18.5306C27.8225 14.8343 30.0963 11.0262 35.0225 11.0262Z" fill="#0064D2"/>
<path d="M58.4646 7.87134C48.7088 7.87134 48.0832 13.0829 48.0832 13.9157H52.939C52.939 13.9157 53.1936 10.8731 58.1297 10.8731C61.3372 10.8731 63.8227 12.3054 63.8227 15.0592V16.0394H58.1297C50.5718 16.0394 46.5762 18.1965 46.5762 22.5738C46.5762 26.8817 50.268 29.2256 55.257 29.2256C62.0562 29.2256 64.2465 25.5602 64.2465 25.5602C64.2465 27.0181 64.3617 28.4548 64.3617 28.4548H68.6785C68.6785 28.4548 68.5111 26.674 68.5111 25.5347V15.6871C68.5111 9.2302 63.1728 7.87134 58.4646 7.87134ZM63.8227 18.9799V20.2867C63.8227 21.9913 62.7446 26.229 56.3977 26.229C52.9221 26.229 51.432 24.5367 51.432 22.5738C51.432 19.0029 56.4502 18.9799 63.8227 18.9799Z" fill="#F5AF02"/>
<path d="M65.8965 8.68896H71.3593L79.1991 24.0128L87.0211 8.68896H91.9696L77.7221 35.9702H72.5314L76.6427 28.3652L65.8965 8.68896Z" fill="#86B817"/>
</g>
<defs>
<clipPath id="clip0_6370_1390">
<rect width="92" height="36" fill="white"/>
</clipPath>
</defs>
</svg>
