<svg width="109" height="31" viewBox="0 0 109 31" fill="none" xmlns="http://www.w3.org/2000/svg">
<path d="M16.6119 22.0319L24.6656 8.35693C24.5238 7.98734 24.382 7.61775 24.2119 7.24815L9.97604 1.22095L0.873047 14.2988C0.901405 14.4979 0.929763 14.7253 0.986479 14.9243L16.6119 22.0319Z" fill="#F7B916"/>
<path d="M51.8009 23.6595H48.4829C48.4829 23.6595 48.4546 23.6595 48.4546 23.631L45.5904 20.1626L42.7546 23.6595L42.7262 23.6879H40.0889C40.0605 23.6879 40.0605 23.6879 40.0605 23.6595C40.0605 23.6595 40.0605 23.631 40.0605 23.6026L44.2576 18.4283L40.1173 13.3109C40.1173 13.2824 40.1173 13.2824 40.1173 13.254L40.1456 13.2256H43.4635C43.4635 13.2256 43.4919 13.2256 43.4919 13.254L45.9874 16.3529L48.5397 13.254L48.568 13.2256H51.2621C51.2904 13.2256 51.2904 13.2256 51.2904 13.254C51.2904 13.2824 51.2904 13.2824 51.2904 13.3109L47.3486 18.0587L51.8292 23.6026C51.8292 23.6026 51.8292 23.631 51.8292 23.6595H51.8009Z" fill="#1F3562"/>
<path d="M69.6823 15.081C68.2077 15.081 67.2151 15.9623 66.9316 17.526H71.9226V17.4122C71.9226 16.1897 71.0152 15.081 69.6823 15.081ZM74.5032 19.1181L74.4749 19.1465H66.9032C67.0734 20.9092 68.2077 21.9326 70.051 21.9326C71.1853 21.9326 72.4047 21.5346 74.1062 20.6249C74.1346 20.5964 74.1629 20.6249 74.1629 20.6817V23.013C74.1629 23.0414 74.1629 23.0414 74.1346 23.0414C72.5465 23.7237 70.9301 24.1786 69.6823 24.1786C66.4211 24.1786 64.0674 21.7905 64.0674 18.521C64.0674 15.2515 66.4211 12.8634 69.6823 12.8634C72.6599 12.8634 74.5599 14.8819 74.5599 17.6397C74.5883 18.0377 74.5032 19.0896 74.5032 19.1181Z" fill="#1F3562"/>
<path d="M89.8821 11.0817C88.9463 11.0817 88.209 10.3425 88.209 9.43274C88.209 8.49454 88.9747 7.72693 89.8821 7.72693C90.8179 7.72693 91.5553 8.49454 91.5553 9.43274C91.5553 10.3425 90.8179 11.0817 89.8821 11.0817ZM88.5209 23.6763C88.4926 23.6763 88.4926 23.6478 88.4926 23.6194V13.2708C88.4926 13.2424 88.4926 13.2424 88.5209 13.2424H91.2433C91.2717 13.2424 91.2717 13.2708 91.2717 13.2708V23.6194C91.2717 23.6478 91.2433 23.6763 91.2433 23.6763H88.5209Z" fill="#1F3562"/>
<path d="M56.7832 22.101C56.2727 22.101 55.7906 22.0442 55.1951 21.8736V15.2493C55.8757 15.0219 56.4712 14.9366 57.0384 14.9366C58.9384 14.9366 60.2145 16.3297 60.2145 18.4335C60.2429 20.6511 58.8817 22.101 56.7832 22.101ZM57.5205 12.8328C56.7548 12.8328 55.9608 12.9749 55.1668 13.2592H52.4444C52.416 13.2592 52.416 13.2876 52.416 13.2876V30.232C53.2384 30.1183 54.2309 29.834 55.2235 29.1233V23.9774C55.9041 24.0627 56.4429 24.148 56.9817 24.148C60.6966 24.148 63.1354 21.902 63.1354 18.4335C63.1071 15.1356 60.81 12.8328 57.5205 12.8328Z" fill="#1F3562"/>
<path d="M83.533 21.243C82.6823 21.6979 81.9166 21.8969 81.2077 21.8969C79.5062 21.8969 78.5136 20.7028 78.5136 18.7127C78.5136 16.4099 79.8181 14.9031 81.8032 14.9031C82.342 14.9031 82.8808 15.0452 83.533 15.3295V21.243ZM83.533 7.76709V13.1688C82.739 12.9414 82.0301 12.8277 81.3211 12.8277C78.0883 12.8277 75.6211 15.2727 75.6211 18.5421C75.6211 21.7832 77.7763 24.1145 80.7539 24.1145C81.7748 24.1145 82.739 23.8586 83.8733 23.2616V24.1998C84.6107 24.0576 85.4898 23.7449 86.3405 23.1478V6.62988C85.5181 6.77203 84.5256 7.05634 83.533 7.76709Z" fill="#1F3562"/>
<path d="M100.752 21.22C99.9294 21.7034 99.2204 21.9308 98.5965 21.9308C96.7816 21.9308 95.704 20.7367 95.704 18.7182C95.704 16.4438 96.9801 14.9085 98.8801 14.9085C99.3906 14.9085 100.014 15.1075 100.752 15.5056V21.22ZM103.559 13.1174C103.559 13.0606 103.502 13.0037 103.446 13.0037H101.234C101.177 13.0037 101.12 13.0606 101.12 13.1174V13.487H101.064C100.043 13.0321 99.1637 12.8331 98.3129 12.8331C95.2503 12.8331 92.8682 15.3634 92.8682 18.6329C92.8682 21.9308 95.0234 24.1199 98.1995 24.1199C99.0503 24.1199 100.156 24.0631 101.177 22.869V24.2052C101.914 24.0631 102.765 23.7503 103.559 23.1533V13.1174Z" fill="#1F3562"/>
<path d="M32.5146 21.0407H39.3773C39.2639 21.8083 39.0087 22.7181 38.4132 23.6279H32.5146H31.352H31.2669C30.3878 23.6279 29.6788 22.9455 29.5938 22.0926V22.0642V15.0135V8.50299V8.47456C29.6788 7.62165 30.3878 6.93933 31.2669 6.93933C31.2952 6.93933 31.3236 6.93933 31.352 6.93933H39.349C39.2355 7.70695 38.9803 8.61671 38.3848 9.52648H32.5146V13.2224H38.3281C38.3564 13.2224 38.3848 13.2508 38.3848 13.2508V15.8096C38.3848 15.838 38.3564 15.838 38.3281 15.838H32.5146V21.0407Z" fill="#1F3562"/>
<path d="M51.8009 23.6598H48.4829H48.4546L45.6188 20.1629L42.7546 23.6598H42.7262H40.0889C40.0605 23.6598 40.0605 23.6598 40.0605 23.6314C40.0605 23.6314 40.0605 23.603 40.0605 23.5745L44.2576 18.4002L40.1173 13.2828C40.1173 13.2544 40.1173 13.2544 40.1173 13.2259L40.1456 13.1975H43.4635C43.4635 13.1975 43.4919 13.1975 43.4919 13.2259L45.9874 16.3248L48.5397 13.2259L48.568 13.1975H51.2621C51.2904 13.1975 51.2904 13.1975 51.2904 13.2259C51.2904 13.2544 51.2904 13.2544 51.2904 13.2828L47.3486 18.0306L51.8292 23.603C51.8292 23.603 51.8576 23.6314 51.8292 23.6598H51.8009Z" fill="#1F3562"/>
<path d="M69.6823 15.0812C68.2077 15.0812 67.2151 15.9625 66.9316 17.5262H71.9226V17.4125C71.9226 16.19 71.0152 15.0812 69.6823 15.0812ZM74.5032 19.1183L74.4749 19.1467H66.9032C67.045 20.9094 68.2077 21.9329 70.051 21.9329C71.1853 21.9329 72.4047 21.5349 74.1062 20.6251C74.1346 20.5967 74.1629 20.6251 74.1629 20.682V23.0132C74.1629 23.0417 74.1629 23.0417 74.1346 23.0417C72.5465 23.724 70.9301 24.1789 69.6823 24.1789C66.4211 24.1789 64.0674 21.7907 64.0674 18.5213C64.0674 15.2518 66.4211 12.8636 69.6823 12.8636C72.6599 12.8636 74.5599 14.8822 74.5599 17.6399C74.5883 18.0379 74.5032 19.0614 74.5032 19.1183Z" fill="#1F3562"/>
<path d="M89.8831 11.0817C88.9473 11.0817 88.21 10.3425 88.21 9.43274C88.21 8.49454 88.9756 7.72693 89.8831 7.72693C90.8189 7.72693 91.5562 8.49454 91.5562 9.43274C91.5562 10.3425 90.8189 11.0817 89.8831 11.0817ZM88.5219 23.6763C88.4935 23.6763 88.4935 23.6478 88.4935 23.6478V13.2992C88.4935 13.2708 88.4935 13.2708 88.5219 13.2708H91.2443C91.2727 13.2708 91.2727 13.2992 91.2727 13.2992V23.6478C91.2727 23.6763 91.2443 23.6763 91.2443 23.6763H88.5219Z" fill="#1F3562"/>
<path d="M56.7832 22.1014C56.3011 22.1014 55.7906 22.0445 55.1951 21.8739V15.2497C55.8757 15.0223 56.4712 14.937 57.0384 14.937C58.9384 14.937 60.2145 16.33 60.2145 18.4339C60.2429 20.6514 58.8817 22.1014 56.7832 22.1014ZM57.5205 12.8331C56.7548 12.8331 55.9608 12.9753 55.1668 13.2596H52.4444C52.416 13.2596 52.416 13.288 52.416 13.3164V30.2609C53.2384 30.1471 54.2309 29.8628 55.2235 29.1521V24.0062C55.9041 24.0915 56.4429 24.1768 56.9817 24.1768C60.6966 24.1768 63.1354 21.9308 63.1354 18.4623C63.1071 15.136 60.81 12.8331 57.5205 12.8331Z" fill="#1F3562"/>
<path d="M83.533 21.243C82.6823 21.6979 81.9166 21.8969 81.2077 21.8969C79.5062 21.8969 78.5136 20.7028 78.5136 18.6843C78.5136 16.3814 79.8181 14.8746 81.8032 14.8746C82.342 14.8746 82.8808 15.0168 83.533 15.3011V21.243ZM83.533 7.76709V13.1688C82.739 12.9414 82.0301 12.8277 81.3211 12.8277C78.0883 12.8277 75.6211 15.2727 75.6211 18.5421C75.6211 21.7832 77.7763 24.1145 80.7539 24.1145C81.7748 24.1145 82.739 23.8586 83.8733 23.2616V24.1998C84.6107 24.0576 85.4898 23.7449 86.3405 23.1478V6.62988C85.5181 6.77203 84.5256 7.05634 83.533 7.76709Z" fill="#1F3562"/>
<path d="M100.752 21.2203C99.9294 21.7036 99.2204 21.931 98.5965 21.931C96.7816 21.931 95.704 20.737 95.704 18.7184C95.704 16.444 96.9801 14.9088 98.8801 14.9088C99.3906 14.9088 100.014 15.1078 100.752 15.5058V21.2203ZM103.559 13.1177C103.559 13.0608 103.502 13.004 103.446 13.004H101.234C101.177 13.004 101.12 13.0608 101.12 13.1177V13.4873H101.064C100.043 13.0324 99.1637 12.8334 98.3129 12.8334C95.2503 12.8334 92.8682 15.3637 92.8682 18.6331C92.8682 21.931 95.0234 24.1202 98.1995 24.1202C99.0503 24.1202 100.156 24.0633 101.177 22.8692V24.2055C101.914 24.0633 102.765 23.7506 103.559 23.1535V13.1177Z" fill="#1F3562"/>
<path d="M32.5146 21.041H39.3773C39.2639 21.8086 39.0087 22.7183 38.4132 23.6281H32.5146H31.352H31.2669C30.3878 23.6281 29.6788 22.9458 29.5938 22.0929V22.0644V15.0138V8.50324V8.4748C29.6788 7.6219 30.3878 6.93958 31.2669 6.93958C31.2952 6.93958 31.3236 6.93958 31.352 6.93958H39.349C39.2356 7.70719 38.9803 8.61696 38.3848 9.52672H32.5146V13.2226H38.3281C38.3564 13.2226 38.3848 13.2511 38.3848 13.2511V15.8098C38.3848 15.8382 38.3564 15.8382 38.3281 15.8382H32.5146V21.041Z" fill="#1F3562"/>
<path d="M106.49 12.8457H106.802C107.17 12.8457 107.312 12.732 107.312 12.5046C107.312 12.2487 107.142 12.135 106.773 12.135H106.49V12.8457ZM106.858 11.8222C107.482 11.8222 107.822 12.0497 107.822 12.4477C107.822 12.7889 107.652 12.9879 107.312 13.0732L107.822 14.0966H107.284L106.83 13.1584H106.49V14.0966H106.007V11.8507H106.858V11.8222ZM105.61 11.7654C105.27 12.1065 105.1 12.533 105.1 12.9879C105.1 13.4428 105.27 13.8692 105.582 14.1819C105.922 14.5231 106.348 14.6937 106.773 14.6937C107.255 14.6937 107.681 14.5231 108.021 14.1819C108.333 13.8692 108.531 13.4428 108.531 12.9879C108.531 12.5046 108.361 12.0781 108.049 11.7654C107.709 11.4242 107.312 11.2536 106.83 11.2536C106.348 11.2821 105.951 11.4526 105.61 11.7654ZM108.248 11.5948C108.616 11.9644 108.815 12.4761 108.815 13.0163C108.815 13.5849 108.616 14.0682 108.219 14.4378C107.822 14.8358 107.312 15.0349 106.802 15.0349C106.263 15.0349 105.752 14.8074 105.384 14.4378C105.015 14.0398 104.788 13.5565 104.788 13.0163C104.788 12.4761 105.015 11.9644 105.384 11.5664C105.752 11.1968 106.234 10.9977 106.773 10.9977C107.369 10.9693 107.851 11.1968 108.248 11.5948Z" fill="#1F3562"/>
<path d="M15.106 9.59624L14.6239 8.20316L10.4269 2.57398L11.1926 2.37497L18.4523 8.65804L22.7344 7.43554C23.2448 7.29339 23.812 7.26496 24.2374 7.29339C22.9045 4.39351 20.4374 2.00537 17.2045 0.839737C10.7956 -1.46311 3.73436 1.92009 1.4657 8.34531C0.756747 10.3354 0.586598 12.3824 0.898539 14.3441L11.1359 10.7903L15.106 9.59624Z" fill="#1F3561"/>
<path d="M24.6362 8.37549C24.2675 8.60293 23.7004 8.94409 23.1616 9.11467L18.8795 10.3372L16.0153 19.5201L15.278 19.776L15.8735 12.7537L15.5332 11.3038L11.5347 12.441L0.928711 14.9429C1.77946 19.0368 4.64364 22.5906 8.86902 24.0974C15.278 26.4002 22.3108 23.017 24.6078 16.5918C25.6004 13.8341 25.5437 10.9342 24.6362 8.37549Z" fill="#1F3561"/>
<path d="M23.9451 23.8882C23.2645 23.8882 22.8391 23.348 22.8391 22.7226C22.8391 22.0402 23.3212 21.5285 23.9451 21.5285C24.5689 21.5285 25.0227 22.0118 25.0227 22.7226C25.0227 23.4049 24.5689 23.8882 23.9451 23.8882ZM23.9451 21.3864C23.2645 21.3864 22.6689 21.8981 22.6689 22.6941C22.6689 23.4333 23.2078 24.0019 23.9451 24.0019C24.6257 24.0019 25.2212 23.4902 25.2212 22.6941C25.2212 21.9265 24.6257 21.3864 23.9451 21.3864Z" fill="#1F3561"/>
<path d="M23.6379 22.6009V22.1176H23.9496C24.1197 22.1176 24.3181 22.146 24.3181 22.345C24.3181 22.5725 24.148 22.6009 23.9496 22.6009H23.6379ZM24.5448 22.3735C24.5448 22.0607 24.3464 21.9186 23.978 21.9186H23.3828V23.4822H23.6379V22.8283H23.8646L24.2614 23.4822H24.5448L24.1197 22.7999C24.3747 22.7715 24.5448 22.6578 24.5448 22.3735Z" fill="#1F3561"/>
</svg>
