<svg width="25" height="24" viewBox="0 0 25 24" fill="none" xmlns="http://www.w3.org/2000/svg">
<g id="icon_jewelry">
<path id="Icon" fill-rule="evenodd" clip-rule="evenodd" d="M5.38386 3.05546C5.89959 2.53973 6.59906 2.25 7.32841 2.25H17.6716C18.4009 2.25 19.1004 2.53973 19.6161 3.05546L22.817 6.25639C23.7768 7.21616 23.8928 8.73263 23.0901 9.82718L14.7176 21.2442C13.6188 22.7426 11.3811 22.7426 10.2824 21.2442L1.90986 9.82718C1.10719 8.73263 1.22316 7.21616 2.18293 6.25639L5.38386 3.05546ZM14.9922 3.75H10.0078L8.60775 7.25H16.3922L14.9922 3.75ZM18.0078 7.25L16.6078 3.75H17.6716C18.0031 3.75 18.321 3.8817 18.5554 4.11612L21.6893 7.25H18.0078ZM16.4594 8.75L12.7372 19.9168C12.6612 20.1447 12.3388 20.1447 12.2628 19.9168L8.54055 8.75H16.4594ZM6.9922 7.25L8.3922 3.75H7.32841C6.99689 3.75 6.67894 3.8817 6.44452 4.11612L3.31064 7.25H6.9922ZM3.00437 8.75H6.95941L10.2756 18.6984L3.11947 8.94014C3.07489 8.87935 3.03655 8.8157 3.00437 8.75ZM14.7244 18.6984L18.0405 8.75H21.9956C21.9634 8.8157 21.9251 8.87935 21.8805 8.94014L14.7244 18.6984Z" fill="#101820"/>
</g>
</svg>
