<svg width="25" height="24" viewBox="0 0 25 24" fill="none" xmlns="http://www.w3.org/2000/svg">
<g id="icon_beauty">
<path id="Icon" fill-rule="evenodd" clip-rule="evenodd" d="M12.0879 3.8379C12.6724 3.25343 13.275 2.84717 13.7526 2.64745C13.9733 2.55514 14.1371 2.51964 14.2418 2.51319C14.2354 2.61794 14.1999 2.78174 14.1076 3.00245C13.9078 3.47999 13.5016 4.0826 12.9171 4.66707C12.3326 5.25154 11.73 5.6578 11.2525 5.85752C11.0318 5.94983 10.868 5.98534 10.7632 5.99178C10.7697 5.88703 10.8052 5.72323 10.8975 5.50252C11.0972 5.02498 11.5035 4.42238 12.0879 3.8379ZM14.3314 2.51674C14.3313 2.51678 14.3304 2.51657 14.3286 2.51596C14.3306 2.51639 14.3314 2.5167 14.3314 2.51674ZM14.239 2.42637C14.2384 2.42462 14.2382 2.42366 14.2383 2.42361C14.2383 2.42357 14.2386 2.42444 14.239 2.42637ZM10.766 6.0786C10.7666 6.08035 10.7668 6.08132 10.7668 6.08136C10.7667 6.08141 10.7664 6.08053 10.766 6.0786ZM15.3363 1.41868C15.0181 1.10042 14.6055 1.0068 14.2457 1.01231C13.889 1.01777 13.5211 1.11837 13.1738 1.2636C12.4756 1.55559 11.715 2.08954 11.0273 2.77724C10.3396 3.46495 9.80562 4.22561 9.51363 4.92376C9.39275 5.2128 9.30279 5.51619 9.27288 5.81545C9.25794 5.87449 9.25 5.93632 9.25 6.00001V8.29268C8.9587 8.39564 8.75 8.67345 8.75 9.00001V12.25H8.5C8.08579 12.25 7.75 12.5858 7.75 13V20C7.75 21.5188 8.98122 22.75 10.5 22.75H14.5C16.0188 22.75 17.25 21.5188 17.25 20V13C17.25 12.5858 16.9142 12.25 16.5 12.25H16.25V9.00001C16.25 8.67345 16.0413 8.39564 15.75 8.29268V3.00001C15.75 2.92687 15.7395 2.85618 15.72 2.78935C15.7334 2.69561 15.7413 2.60208 15.7427 2.50931C15.7482 2.14949 15.6546 1.73694 15.3363 1.41868ZM14.25 5.44299C14.1623 5.53903 14.0714 5.63406 13.9778 5.72773C13.2901 6.41543 12.5294 6.94939 11.8312 7.24137C11.484 7.38661 11.116 7.4872 10.7593 7.49266C10.7562 7.49271 10.7531 7.49275 10.75 7.49278V8.25001H14.25V5.44299ZM14.75 12.25V9.75001H10.25V12.25H14.75ZM9.25 20V13.75H15.75V20C15.75 20.6904 15.1904 21.25 14.5 21.25H10.5C9.80964 21.25 9.25 20.6904 9.25 20ZM10.5 15.25C10.9142 15.25 11.25 15.5858 11.25 16V18C11.25 18.4142 10.9142 18.75 10.5 18.75C10.0858 18.75 9.75 18.4142 9.75 18V16C9.75 15.5858 10.0858 15.25 10.5 15.25Z" fill="#101820"/>
</g>
</svg>
