<svg width="25" height="24" viewBox="0 0 25 24" fill="none" xmlns="http://www.w3.org/2000/svg">
<g id="icon_furniture">
<path id="Icon" fill-rule="evenodd" clip-rule="evenodd" d="M10.9 2.25H10.867H10.867C9.77484 2.25 8.90935 2.24999 8.21173 2.30699C7.49835 2.36527 6.89472 2.48688 6.34355 2.76772C5.44978 3.22312 4.72312 3.94978 4.26772 4.84355C3.98688 5.39472 3.86527 5.99835 3.80699 6.71173C3.74999 7.40936 3.75 8.27485 3.75 9.36699V9.367L3.75 9.4V11.3673C3.57911 11.4091 3.41309 11.4674 3.25153 11.5497C2.73408 11.8134 2.31339 12.2341 2.04973 12.7515C1.87789 13.0888 1.81078 13.4454 1.77974 13.8253C1.75334 14.1485 1.75037 14.5359 1.75004 14.9922L1.75 15V15.1195V15.1695V15.1696V15.2V19V21C1.75 21.4142 2.08579 21.75 2.5 21.75C2.91421 21.75 3.25 21.4142 3.25 21V19.75H21.75V21C21.75 21.4142 22.0858 21.75 22.5 21.75C22.9142 21.75 23.25 21.4142 23.25 21V19V15.2V15.1695V15.1157V15L23.25 14.9923C23.2496 14.5359 23.2467 14.1485 23.2203 13.8253C23.1892 13.4454 23.1221 13.0888 22.9503 12.7515C22.6866 12.2341 22.2659 11.8134 21.7485 11.5497C21.5869 11.4674 21.4209 11.4091 21.25 11.3673V9.4V9.36698C21.25 8.27485 21.25 7.40935 21.193 6.71173C21.1347 5.99835 21.0131 5.39472 20.7323 4.84355C20.2769 3.94978 19.5502 3.22312 18.6565 2.76772C18.1053 2.48688 17.5017 2.36527 16.7883 2.30699C16.0907 2.24999 15.2252 2.25 14.133 2.25H14.133H14.1H10.9ZM19.3 12.75H16.5H8.5H5.7C5.12757 12.75 4.74336 12.7506 4.44748 12.7748C4.16036 12.7982 4.02307 12.8401 3.93251 12.8862C3.69731 13.0061 3.50608 13.1973 3.38624 13.4325C3.3401 13.5231 3.29822 13.6604 3.27476 13.9475C3.25058 14.2434 3.25 14.6276 3.25 15.2V18.25H21.75V15.2C21.75 14.6276 21.7494 14.2434 21.7252 13.9475C21.7018 13.6604 21.6599 13.5231 21.6138 13.4325C21.4939 13.1973 21.3027 13.0061 21.0675 12.8862C20.9769 12.8401 20.8396 12.7982 20.5525 12.7748C20.2566 12.7506 19.8724 12.75 19.3 12.75ZM19.3843 11.25H19.75V9.4C19.75 8.26752 19.7494 7.46327 19.698 6.83388C19.6473 6.21325 19.5509 5.829 19.3958 5.52453C19.0842 4.913 18.587 4.41582 17.9755 4.10423C17.671 3.94909 17.2867 3.85271 16.6661 3.80201C16.0367 3.75058 15.2325 3.75 14.1 3.75H10.9C9.76752 3.75 8.96327 3.75058 8.33388 3.80201C7.71325 3.85271 7.329 3.94909 7.02453 4.10423C6.41301 4.41582 5.91582 4.913 5.60423 5.52453C5.44909 5.829 5.35271 6.21325 5.30201 6.83388C5.25058 7.46327 5.25 8.26752 5.25 9.4V11.25H5.61568C5.63354 11.25 5.6515 11.25 5.66957 11.25H5.7H7.75V11.2L7.75 11.1696V11.1695C7.74999 10.6354 7.74998 10.1896 7.77974 9.82533C7.81078 9.44545 7.87789 9.08879 8.04973 8.75153C8.31339 8.23408 8.73408 7.81339 9.25153 7.54973C9.58879 7.37789 9.94545 7.31078 10.3253 7.27974C10.6896 7.24998 11.1354 7.24999 11.6695 7.25H11.6696L11.7 7.25H13.3L13.3304 7.25H13.3305C13.8646 7.24999 14.3104 7.24998 14.6747 7.27974C15.0546 7.31078 15.4112 7.37789 15.7485 7.54973C16.2659 7.81339 16.6866 8.23408 16.9503 8.75153C17.1221 9.08879 17.1892 9.44545 17.2203 9.82533C17.25 10.1896 17.25 10.6354 17.25 11.1695V11.1695V11.2V11.25H19.3H19.3304C19.3485 11.25 19.3665 11.25 19.3843 11.25ZM15.75 11.25V11.2C15.75 10.6276 15.7494 10.2434 15.7252 9.94748C15.7018 9.66036 15.6599 9.52307 15.6138 9.43251C15.4939 9.19731 15.3027 9.00608 15.0675 8.88624C14.9769 8.8401 14.8396 8.79822 14.5525 8.77476C14.2566 8.75058 13.8724 8.75 13.3 8.75H11.7C11.1276 8.75 10.7434 8.75058 10.4475 8.77476C10.1604 8.79822 10.0231 8.8401 9.93251 8.88624C9.69731 9.00608 9.50608 9.19731 9.38624 9.43251C9.3401 9.52307 9.29822 9.66036 9.27476 9.94748C9.25058 10.2434 9.25 10.6276 9.25 11.2V11.25H15.75Z" fill="#101820"/>
</g>
</svg>
