<svg width="25" height="24" viewBox="0 0 25 24" fill="none" xmlns="http://www.w3.org/2000/svg">
<g id="icon_heart">
<path id="Icon" fill-rule="evenodd" clip-rule="evenodd" d="M16.4892 3.75056C15.1789 3.7316 13.9502 4.17735 13.124 5.41662C12.9849 5.62526 12.7508 5.75058 12.5 5.75058C12.2492 5.75058 12.0151 5.62526 11.876 5.41662C11.0543 4.18417 9.80339 3.75064 8.5 3.75064C5.87322 3.75064 3.25 5.95461 3.25 9.00042C3.25 12.1785 5.30478 14.9902 7.62509 17.0662C8.77178 18.0921 9.94943 18.9071 10.8954 19.4627C11.3687 19.7406 11.776 19.9489 12.0853 20.085C12.2405 20.1533 12.3622 20.1995 12.4496 20.2272C12.4702 20.2338 12.4869 20.2386 12.5 20.2422C12.5131 20.2386 12.5298 20.2338 12.5504 20.2272C12.6378 20.1995 12.7595 20.1533 12.9148 20.085C13.224 19.9489 13.6313 19.7406 14.1046 19.4627C15.0506 18.9071 16.2282 18.0921 17.3749 17.0662C19.6952 14.9902 21.75 12.1785 21.75 9.00042C21.75 5.96335 19.1341 3.78883 16.4892 3.75056ZM12.4984 3.81005C13.6283 2.6447 15.0981 2.23028 16.5109 2.25072C19.8659 2.29926 23.25 5.03776 23.25 9.00042C23.25 12.8221 20.8048 16.0102 18.3751 18.1841C17.1468 19.283 15.8869 20.1555 14.8642 20.7561C14.3531 21.0563 13.8932 21.2933 13.5188 21.458C13.3323 21.5401 13.1581 21.6081 13.0038 21.657C12.8684 21.7 12.6833 21.75 12.5 21.75C12.3167 21.75 12.1316 21.7 11.9962 21.657C11.8419 21.6081 11.6677 21.5401 11.4812 21.458C11.1068 21.2933 10.6469 21.0563 10.1358 20.7561C9.11308 20.1555 7.85323 19.283 6.62492 18.1841C4.19523 16.0102 1.75 12.8221 1.75 9.00042C1.75 5.04651 5.12678 2.25064 8.5 2.25064C9.87536 2.25064 11.36 2.64677 12.4984 3.81005Z" fill="#101820"/>
</g>
</svg>
