<svg width="25" height="24" viewBox="0 0 25 24" fill="none" xmlns="http://www.w3.org/2000/svg">
<g id="icon_travel">
<g id="Icon">
<path fill-rule="evenodd" clip-rule="evenodd" d="M17.6508 9.98104C17.8588 10.079 18.0103 10.2669 18.062 10.4909L19.3632 16.1295C19.43 16.4187 19.3199 16.7201 19.0825 16.8982L17.3475 18.1994C17.026 18.4405 16.5715 18.3854 16.317 18.0743L12.4134 13.3032C12.269 13.1268 12.2128 12.8943 12.2604 12.6714C12.3081 12.4485 12.4546 12.2594 12.6584 12.1574L16.9958 9.98873C17.2014 9.88592 17.4428 9.88309 17.6508 9.98104ZM14.1684 13.0795L17.0227 16.568L17.7919 15.9911L16.8146 11.7564L14.1684 13.0795Z" fill="#101820"/>
<path fill-rule="evenodd" clip-rule="evenodd" d="M5.08995 4.9244C5.29247 4.72188 5.59266 4.65238 5.86358 4.7453L14.7431 7.79058C15.0315 7.88949 15.2313 8.15312 15.2486 8.45751C15.2658 8.76189 15.0971 9.04645 14.8218 9.17736L10.2797 11.3369C10.058 11.4424 9.79872 11.4326 9.58556 11.3108L3.51322 7.84087C3.31026 7.7249 3.17298 7.52092 3.14196 7.28924C3.11093 7.05755 3.1897 6.82465 3.35499 6.65936L5.08995 4.9244ZM5.81967 6.316L5.10999 7.02568L9.98953 9.814L12.5163 8.61264L5.81967 6.316Z" fill="#101820"/>
<path fill-rule="evenodd" clip-rule="evenodd" d="M16.3726 6.13812C17.4173 5.80489 18.382 5.5722 19.0662 5.5722C19.7882 5.5722 20.421 5.6257 20.9489 5.73828C21.4652 5.84839 21.9449 6.02813 22.3014 6.32738C22.6906 6.65408 22.9147 7.11378 22.8671 7.65046C22.8243 8.13328 22.5697 8.57888 22.2462 8.96938C22.129 9.11085 21.9746 9.22917 21.8421 9.32069C21.6982 9.42017 21.5264 9.52404 21.3366 9.63032C20.9563 9.84323 20.4657 10.0868 19.8997 10.35C18.7654 10.8775 17.2858 11.5035 15.6865 12.15C12.486 13.4437 8.77135 14.8333 6.30367 15.7042C6.22349 15.7325 6.13908 15.747 6.05406 15.747H2.58414C2.38386 15.747 2.12479 15.7173 1.89028 15.5729C1.61144 15.4013 1.45226 15.1191 1.4336 14.8121C1.41789 14.5535 1.5036 14.3319 1.57763 14.1856C1.65723 14.0283 1.76235 13.8823 1.87088 13.7539C2.0997 13.4831 2.42478 13.1973 2.78524 12.9639L1.52637 11.0756C1.32805 10.7782 1.36727 10.3821 1.62007 10.1293L2.48755 9.26179C2.71582 9.03352 3.06455 8.97693 3.35329 9.1213L6.45198 10.6706C7.05255 10.3108 7.72531 9.93632 8.43865 9.56181C8.80539 9.36927 9.25878 9.51048 9.45132 9.87723C9.64387 10.244 9.50265 10.6974 9.13591 10.8899C8.29932 11.3291 7.5314 11.7624 6.88309 12.1644C6.66184 12.3017 6.38525 12.3143 6.15238 12.1979L3.16597 10.7047L3.1155 10.7552L4.5094 12.846C4.64224 13.0453 4.67194 13.296 4.58931 13.5208C4.50668 13.7456 4.32168 13.9174 4.0914 13.9832C3.93516 14.0278 3.74697 14.1247 3.56415 14.247H5.92541C8.37302 13.3806 11.998 12.023 15.1244 10.7593C16.7145 10.1165 18.1669 9.50154 19.2672 8.98988C19.8184 8.73355 20.2707 8.508 20.6038 8.32149C20.7707 8.22806 20.8983 8.14964 20.9894 8.08665C21.0689 8.03171 21.0971 8.00512 21.0971 8.00512C21.3259 7.72715 21.3686 7.56754 21.373 7.51797C21.3732 7.51589 21.3733 7.51276 21.3733 7.51276C21.3685 7.50621 21.3579 7.49377 21.337 7.47626C21.248 7.40158 21.0403 7.29152 20.636 7.20529C20.2434 7.12155 19.7224 7.0722 19.0662 7.0722C18.6358 7.0722 17.8661 7.2362 16.8284 7.56718C15.8165 7.88996 14.6244 8.34646 13.3851 8.8755C13.0042 9.03812 12.5635 8.86113 12.4009 8.48018C12.2383 8.09923 12.4153 7.65857 12.7962 7.49594C14.0638 6.95482 15.3021 6.47957 16.3726 6.13812Z" fill="#101820"/>
<path fill-rule="evenodd" clip-rule="evenodd" d="M1.74976 21C1.74976 20.5858 2.08554 20.25 2.49976 20.25H7.99976C8.41397 20.25 8.74976 20.5858 8.74976 21C8.74976 21.4142 8.41397 21.75 7.99976 21.75H2.49976C2.08554 21.75 1.74976 21.4142 1.74976 21Z" fill="#101820"/>
</g>
</g>
</svg>
