<svg width="25" height="24" viewBox="0 0 25 24" fill="none" xmlns="http://www.w3.org/2000/svg">
<g id="icon_shoes">
<path id="Icon" fill-rule="evenodd" clip-rule="evenodd" d="M9.43938 2.20773C9.14484 1.92632 8.67953 1.93146 8.39129 2.21931L3.02366 7.57965C2.32669 8.27567 2.34122 9.40956 3.05581 10.0875L13.9209 20.3953C14.4318 20.88 15.1093 21.1503 15.8136 21.1503H19.8364C21.2634 21.1503 22.5622 20.0247 22.5061 18.4888C22.4535 17.0518 22.1748 15.8865 21.3685 15.12C20.6576 14.4442 19.6749 14.21 18.5281 14.1761L15.077 7.28326C14.911 6.95162 14.5274 6.79115 14.1747 6.90572C12.7845 7.35727 11.7928 7.00702 11.1551 6.51154C10.8245 6.25464 10.5835 5.95347 10.4354 5.68905C10.3318 5.50388 10.2966 5.38027 10.2833 5.32305C10.2934 5.28672 10.3008 5.25331 10.3063 5.22502C10.3269 5.12048 10.3376 5.00616 10.3424 4.89538C10.3522 4.66988 10.3403 4.38971 10.2975 4.09304C10.2166 3.53293 10.0008 2.74419 9.43938 2.20773ZM7.10281 5.62592L8.74831 3.98266C8.77477 4.08499 8.79651 4.19385 8.81289 4.30735C8.84305 4.51626 8.84932 4.70285 8.84379 4.83041C8.84273 4.85492 8.84129 4.87577 8.83974 4.89289C8.81546 4.95041 8.79829 5.01114 8.78893 5.07381C8.72171 5.52426 8.90461 6.02532 9.12661 6.42183C9.36963 6.85589 9.74093 7.31233 10.2348 7.69605C11.131 8.39236 12.4161 8.83519 14.0091 8.5008L14.2528 8.98759L13.4618 9.38257C13.0912 9.56761 12.9408 10.018 13.1258 10.3886C13.3109 10.7592 13.7613 10.9096 14.1319 10.7246L14.9244 10.3289L15.4717 11.422L14.6807 11.817C14.3101 12.0021 14.1597 12.4525 14.3447 12.8231C14.5298 13.1937 14.9802 13.3441 15.3508 13.159L16.1433 12.7633L16.6907 13.8567L15.8996 14.2517C15.529 14.4367 15.3786 14.8871 15.5637 15.2577C15.7487 15.6283 16.1991 15.7787 16.5697 15.5937L17.3622 15.1979L17.3925 15.2584C17.5212 15.5155 17.7856 15.6764 18.0731 15.6725C19.3361 15.6557 19.9743 15.8642 20.335 16.2071C20.6159 16.4741 20.8363 16.9252 20.9437 17.7432L16.0388 17.2534C15.9838 17.2479 15.9322 17.2243 15.8921 17.1865L8.04528 9.78567C8.30433 9.325 8.45235 8.79313 8.45235 8.22771C8.45235 7.15187 7.9187 6.20213 7.10281 5.62592ZM6.011 6.71624L5.41837 7.30807L6.8872 8.69342C6.92965 8.54565 6.95235 8.38947 6.95235 8.22771C6.95235 7.56615 6.56969 6.99162 6.011 6.71624ZM4.35651 8.36849L4.0836 8.64103C3.98403 8.74046 3.98611 8.90244 4.08819 8.99929L14.9533 19.3071C15.1855 19.5274 15.4935 19.6503 15.8136 19.6503H19.8364C20.2247 19.6503 20.5539 19.4826 20.7634 19.2326L15.8897 18.7459C15.5051 18.7075 15.144 18.5429 14.8629 18.2777L4.35651 8.36849Z" fill="#101820"/>
</g>
</svg>
