<svg width="25" height="24" viewBox="0 0 25 24" fill="none" xmlns="http://www.w3.org/2000/svg">
<g id="icon_cycling" clip-path="url(#clip0_3807_572)">
<path id="Icon" fill-rule="evenodd" clip-rule="evenodd" d="M13.6819 4.77233C13.2801 4.67186 12.8729 4.91619 12.7724 5.31803C12.6719 5.71988 12.9163 6.12708 13.3181 6.22754C14.1403 6.43309 14.6457 6.82648 15.0211 7.35572C15.0312 7.36997 15.0412 7.38434 15.0512 7.39883C14.971 7.45861 14.9016 7.53548 14.8488 7.62783L13.6362 9.74993H6.5C6.48791 9.74993 6.4759 9.75022 6.46395 9.75078L5.9044 8.63168C6.11226 8.49834 6.25 8.26522 6.25 7.99993C6.25 7.58572 5.91421 7.24993 5.5 7.24993H3C2.58579 7.24993 2.25 7.58572 2.25 7.99993C2.25 8.41415 2.58579 8.74993 3 8.74993H4.29281C4.30304 8.77876 4.31515 8.80728 4.32918 8.83534L5.28878 10.7545C2.76344 10.865 0.75 12.9474 0.75 15.4999C0.75 18.1233 2.87665 20.2499 5.5 20.2499C8.03949 20.2499 10.1135 18.2571 10.2435 15.7499H10.3394C11.3262 15.7499 12.2374 15.2211 12.727 14.3643L15.7868 9.00968C15.848 9.19412 15.9083 9.38763 15.9691 9.59044C16.0313 9.79779 16.0935 10.0133 16.1576 10.2355L16.1576 10.2356C16.2937 10.7072 16.4385 11.2094 16.6113 11.729C15.4796 12.5972 14.75 13.9634 14.75 15.4999C14.75 18.1233 16.8766 20.2499 19.5 20.2499C22.1234 20.2499 24.25 18.1233 24.25 15.4999C24.25 12.8766 22.1234 10.7499 19.5 10.7499C18.9594 10.7499 18.4399 10.8403 17.9557 11.0066C17.8302 10.6123 17.7159 10.2188 17.6025 9.82882L17.6024 9.82855C17.5372 9.60419 17.4723 9.38098 17.4059 9.15942C17.1239 8.21954 16.7989 7.26942 16.2446 6.4879C15.6668 5.67339 14.8597 5.06678 13.6819 4.77233ZM17.184 13.2199C17.5997 14.1506 18.1511 15.0973 18.9356 15.9938C19.2083 16.3055 19.6822 16.3371 19.9939 16.0644C20.3056 15.7916 20.3372 15.3178 20.0644 15.0061C19.3377 14.1755 18.8446 13.3021 18.4693 12.4168C18.7932 12.3086 19.1397 12.2499 19.5 12.2499C21.2949 12.2499 22.75 13.705 22.75 15.4999C22.75 17.2949 21.2949 18.7499 19.5 18.7499C17.7051 18.7499 16.25 17.2949 16.25 15.4999C16.25 14.6116 16.6064 13.8066 17.184 13.2199ZM7.62365 11.2499H12.779L11.4247 13.6201C11.2021 14.0096 10.7879 14.2499 10.3394 14.2499H10.0838C9.72628 12.9358 8.8187 11.8482 7.62365 11.2499ZM8.50092 14.2499H6C5.58579 14.2499 5.25 14.5857 5.25 14.9999C5.25 15.4141 5.58579 15.7499 6 15.7499H8.74053C8.61287 17.428 7.21081 18.7499 5.5 18.7499C3.70507 18.7499 2.25 17.2949 2.25 15.4999C2.25 13.705 3.70507 12.2499 5.5 12.2499C6.85197 12.2499 8.01114 13.0755 8.50092 14.2499Z" fill="#101820"/>
</g>
<defs>
<clipPath id="clip0_3807_572">
<rect width="24" height="24" fill="white" transform="translate(0.5)"/>
</clipPath>
</defs>
</svg>
