<svg width="109" height="26" viewBox="0 0 109 26" fill="none" xmlns="http://www.w3.org/2000/svg">
<path fill-rule="evenodd" clip-rule="evenodd" d="M97.3604 9.59033C97.9815 10.3375 98.1057 11.0847 98.1057 11.5828V11.7073H92.3919C92.5161 10.9601 92.6403 10.3375 93.1372 9.71486C93.4058 9.42791 93.7284 9.19699 94.0864 9.03537C94.4443 8.87374 94.8306 8.78458 95.223 8.77301C95.6154 8.76144 96.0062 8.82768 96.373 8.96794C96.7398 9.1082 97.0754 9.31971 97.3604 9.59033ZM100.59 19.0546C101.21 18.4158 101.752 17.7051 102.205 16.9376L99.2236 15.3187C99.1823 15.385 99.1404 15.4535 99.0975 15.5237C98.4962 16.5073 97.7002 17.8093 95.4972 17.8093C93.2614 17.8093 92.2677 16.0658 92.2677 14.3224H102.453C102.447 14.2438 102.441 14.1622 102.435 14.0779C102.313 12.4273 102.114 9.74257 100.342 7.84691C98.6026 5.85445 96.1183 5.85445 95.373 5.85445C89.7834 5.85445 88.0444 10.213 88.0444 13.6998C88.0444 18.4319 91.0255 21.1716 95.2488 21.1716C97.4846 21.1716 99.3478 20.2998 100.59 19.0546ZM78.2315 7.44097C78.567 7.04157 78.9351 6.79556 79.5979 6.35256C79.7221 6.32766 79.8562 6.29777 79.9993 6.26589C80.5717 6.13837 81.2872 5.97898 82.0822 5.97898C82.9517 5.97898 83.9454 5.97898 84.5664 6.47709C86.1812 7.3488 86.5538 8.59409 86.5538 10.8356V20.5489H82.3306V12.579V10.3375C81.9579 9.59033 81.2127 9.34127 80.4674 9.34127C78.2315 9.34127 78.2315 11.0847 78.2315 12.8281V20.5489H74.0083V6.35256H78.2315V7.44097ZM69.0397 4.98274C70.2819 4.98274 71.2756 3.86198 71.2756 2.61668C71.2756 1.37139 70.2819 0.375157 69.0397 0.375157C67.7976 0.375157 66.8039 1.37139 66.8039 2.61668C66.8039 3.98651 67.7976 4.98274 69.0397 4.98274ZM71.1514 6.35256H67.0523V20.5489H71.1514V6.35256ZM64.1954 20.5489V0.126099H59.9721V20.5489H64.1954ZM53.0162 9.4658C53.6372 10.0884 53.7615 10.9601 53.7615 11.5828H48.0476C48.1718 10.8356 48.2961 10.213 48.7929 9.59033C49.0616 9.30338 49.3842 9.07246 49.7421 8.91084C50.1001 8.74921 50.4863 8.66005 50.8787 8.64848C51.2711 8.63691 51.662 8.70315 52.0288 8.84341C52.3956 8.98367 52.7311 9.19518 53.0162 9.4658ZM56.2457 19.0546C56.9178 18.3843 57.5022 17.6311 57.9847 16.813L58.2331 16.9376L55.1278 15.3187C55.0865 15.385 55.0446 15.4535 55.0017 15.5237C54.4003 16.5072 53.6043 17.8093 51.4014 17.8093C49.1655 17.8093 48.1718 16.0658 48.1718 14.3224H58.3574C58.346 14.1747 58.3357 14.0165 58.3248 13.8496C58.2166 12.1879 58.0517 9.65751 56.2457 7.84691C54.5067 5.85445 52.0225 5.85445 51.2772 5.85445C45.5634 5.85445 43.8244 10.3375 43.7002 13.6998C43.7002 18.4319 46.6813 21.1716 50.9045 21.1716C53.1404 21.1716 55.0036 20.2998 56.2457 19.0546ZM41.2159 16.564L41.5885 16.0659L41.7127 16.1904C41.9963 17.3685 42.5979 18.4456 43.4517 19.3036C42.1823 20.426 40.5483 21.0458 38.8558 21.047C36.1231 21.047 31.7756 19.4281 31.7756 13.5753C31.7756 9.4658 34.1357 5.85445 38.8558 5.85445C40.5504 5.844 42.1885 6.46536 43.4517 7.59786C42.5822 8.46955 42.0854 9.59031 41.5885 10.7111C41.5516 10.6555 41.5146 10.5972 41.4764 10.5369C41.258 10.1921 40.9993 9.78382 40.4706 9.4658C40.2222 9.21674 39.6011 8.96768 38.98 8.96768C36.7442 8.96768 35.9989 11.5828 35.9989 13.3262C35.9989 15.1941 36.8684 17.5602 39.1042 17.5602C39.3527 17.5602 40.3464 17.5602 41.2159 16.564ZM27.925 4.98274C29.1672 4.98274 30.1609 3.86198 30.1609 2.61668C30.1609 1.37139 29.1672 0.375157 27.925 0.375157C26.6829 0.375157 25.6892 1.37139 25.6892 2.61668C25.6892 3.98651 26.6829 4.98274 27.925 4.98274ZM29.9124 6.35256H25.8134V20.5489H29.9124V6.35256ZM24.0744 6.1035C21.8386 6.35256 20.8449 6.97521 19.9754 7.72239V6.22803H15.8763V20.5489H20.0996V12.579C20.0996 10.7111 20.7206 10.462 22.7081 10.0884L24.0744 9.83939V6.1035ZM7.2322 9.09221C7.25663 9.09185 7.28109 9.09185 7.30557 9.09221H7.80242C9.66563 9.4658 10.1625 11.5828 10.2867 13.3262C10.2867 15.5677 9.29299 17.8093 7.18136 17.9338C6.56029 17.9338 5.81501 17.6847 5.31815 17.1866C4.8213 16.564 4.32444 15.4432 4.32444 13.5753C4.32444 12.2054 4.57287 10.9601 5.19394 10.213C5.42358 9.86328 5.73745 9.57727 6.10653 9.38137C6.45398 9.19696 6.8398 9.09802 7.2322 9.09221ZM4.34483 7.3141C4.221 7.41453 4.07602 7.53212 4.07602 7.72239V7.59786V6.35256H0.349609V25.5301H4.57287V19.6772C4.63942 19.7189 4.70541 19.7606 4.7711 19.8021C5.68638 20.3804 6.54421 20.9225 8.05085 20.9225C12.8952 20.9225 14.2615 16.3149 14.2615 13.4507C14.2615 8.59409 11.5288 5.97898 8.05085 5.97898C6.43608 5.97898 5.19394 6.47709 4.44866 7.22427C4.41933 7.25367 4.38309 7.28306 4.34483 7.3141ZM106.877 1.99969C106.397 1.7373 105.857 1.60652 105.31 1.62057C104.752 1.61904 104.203 1.76861 103.722 2.05353C103.241 2.33844 102.846 2.74814 102.578 3.23945C102.329 3.61304 102.205 4.23569 102.205 4.7338C102.205 5.35645 102.329 5.85457 102.578 6.22816C102.844 6.72239 103.238 7.13525 103.719 7.42301C104.2 7.71076 104.75 7.86269 105.31 7.86269C105.87 7.86269 106.42 7.71076 106.901 7.42301C107.382 7.13525 107.777 6.72239 108.043 6.22816C108.291 5.85457 108.416 5.23192 108.416 4.7338C108.416 4.11116 108.291 3.61304 108.043 3.11492C107.759 2.64677 107.357 2.26207 106.877 1.99969ZM107.353 5.86622C107.158 6.21287 106.884 6.50778 106.552 6.72627C106.18 6.97533 105.683 7.09986 105.31 7.09986C104.705 7.1007 104.123 6.86859 103.684 6.45145C103.245 6.03432 102.982 5.46402 102.95 4.85833C102.95 4.36022 103.074 3.8621 103.323 3.61304C103.507 3.24143 103.79 2.92827 104.141 2.70841C104.492 2.48855 104.897 2.37062 105.31 2.36775C105.807 2.36775 106.18 2.49228 106.428 2.74133C106.799 2.92569 107.111 3.20956 107.331 3.56133C107.55 3.9131 107.667 4.31899 107.67 4.7338C107.656 5.13128 107.547 5.51958 107.353 5.86622ZM106.552 4.7338V4.23569C106.552 3.8621 106.428 3.61304 106.18 3.48851C105.931 3.23945 105.683 3.23945 105.31 3.23945H104.068V6.10363H104.689V5.23192H105.559L105.931 6.10363H106.677L106.056 5.10739C106.304 5.10739 106.428 4.98286 106.552 4.7338ZM105.434 4.7338H104.813L104.689 4.60927V3.73757H105.807V4.11116V4.60927L105.434 4.7338Z" fill="#0068EF"/>
</svg>
