<svg width="80" height="81" viewBox="0 0 80 81" fill="none" xmlns="http://www.w3.org/2000/svg">
<g clip-path="url(#clip0_4488_23737)">
<path d="M54.8299 70.0064H26.9299C26.36 70.0061 25.8109 69.7925 25.3908 69.4075C24.9706 69.0225 24.7099 68.4941 24.6599 67.9264L19.8999 14.0864C19.8722 13.7715 19.9102 13.4542 20.0117 13.1548C20.1132 12.8553 20.2758 12.5802 20.4893 12.347C20.7028 12.1138 20.9624 11.9275 21.2517 11.8C21.5411 11.6725 21.8537 11.6066 22.1699 11.6064H50.0699C50.6398 11.6067 51.1889 11.8204 51.609 12.2054C52.0292 12.5904 52.2899 13.1188 52.3399 13.6864L57.0999 67.5264C57.1276 67.8414 57.0896 68.1587 56.9881 68.4581C56.8866 68.7576 56.724 69.0326 56.5105 69.2659C56.2971 69.4991 56.0374 69.6854 55.7481 69.8129C55.4588 69.9404 55.1461 70.0063 54.8299 70.0064V70.0064Z" fill="#FFCA61" stroke="#212189" stroke-width="1.5" stroke-linecap="round" stroke-linejoin="round"/>
<path d="M57.8299 70.0064H29.9299C29.36 70.0061 28.8109 69.7925 28.3908 69.4075C27.9706 69.0225 27.7099 68.4941 27.6599 67.9264L22.8999 14.0864C22.8722 13.7715 22.9102 13.4542 23.0117 13.1548C23.1132 12.8553 23.2758 12.5802 23.4893 12.347C23.7028 12.1138 23.9624 11.9275 24.2517 11.8C24.5411 11.6725 24.8537 11.6066 25.1699 11.6064H53.0699C53.6398 11.6067 54.1889 11.8204 54.609 12.2054C55.0292 12.5904 55.2899 13.1188 55.3399 13.6864L60.0999 67.5264C60.1276 67.8414 60.0896 68.1587 59.9881 68.4581C59.8866 68.7576 59.724 69.0326 59.5105 69.2659C59.2971 69.4991 59.0374 69.6854 58.7481 69.8129C58.4588 69.9404 58.1461 70.0063 57.8299 70.0064Z" fill="white" stroke="#212189" stroke-width="1.5" stroke-linecap="round" stroke-linejoin="round"/>
<path d="M32.6399 11.6064H45.1199C45.1694 12.1803 45.1001 12.7583 44.9163 13.3042C44.7324 13.8501 44.438 14.3522 44.0513 14.7792C43.6647 15.2062 43.1942 15.5488 42.6691 15.7858C42.1441 16.0228 41.5759 16.149 40.9999 16.1564H36.8699C35.8233 16.1555 34.815 15.763 34.0432 15.056C33.2715 14.3491 32.7923 13.3789 32.6999 12.3364L32.6399 11.6064Z" fill="#FFE98F" stroke="#212189" stroke-width="1.5" stroke-linecap="round" stroke-linejoin="round"/>
<path d="M30.9999 62.8064L27.5399 22.8064C27.4927 22.2633 27.5591 21.7163 27.7347 21.2002C27.9103 20.6841 28.1914 20.2102 28.5601 19.8086C28.9288 19.407 29.377 19.0865 29.8762 18.8675C30.3754 18.6485 30.9147 18.5357 31.4599 18.5364H48.9999C49.9826 18.535 50.9301 18.9018 51.6557 19.5644C52.3813 20.2271 52.8324 21.1376 52.9199 22.1164L56.4999 62.1164C56.5484 62.6608 56.4832 63.2093 56.3083 63.7271C56.1334 64.2449 55.8527 64.7207 55.4841 65.1241C55.1154 65.5276 54.6668 65.85 54.1668 66.0707C53.6669 66.2915 53.1264 66.4058 52.5799 66.4064H34.9299C33.9423 66.4099 32.9896 66.0414 32.2614 65.3743C31.5332 64.7073 31.0828 63.7905 30.9999 62.8064V62.8064Z" fill="#E6E6FC"/>
<path fill-rule="evenodd" clip-rule="evenodd" d="M41.55 47.6164C40.81 47.6164 40.4 47.2564 40.34 46.6164C40.22 45.4964 41.42 45.1164 43.68 44.8764C43.7494 45.1976 43.7469 45.5301 43.6727 45.8503C43.5985 46.1704 43.4545 46.4701 43.251 46.7281C43.0475 46.9861 42.7895 47.1959 42.4954 47.3426C42.2014 47.4892 41.8785 47.5691 41.55 47.5764V47.6164ZM41.64 39.1764C40.0486 39.2337 38.5188 39.8057 37.28 40.8064L38.42 42.8064C39.269 41.9618 40.4035 41.4659 41.6 41.4164C42.73 41.4164 43.39 41.7964 43.48 42.5564C43.53 43.0664 43.14 43.3264 42.37 43.4264C39.49 43.8064 37.29 44.6164 37.53 46.8664C37.72 48.6564 39.11 49.7364 41.09 49.7364C41.7248 49.7513 42.351 49.5877 42.8973 49.2642C43.4436 48.9406 43.888 48.4702 44.18 47.9064L44.34 49.4464H47L46.31 43.0064C46 40.2964 44 39.2164 41.64 39.2164" fill="#212189"/>
<path fill-rule="evenodd" clip-rule="evenodd" d="M35.0999 49.3964C33.9905 47.9695 33.2982 46.263 33.0999 44.4664C32.9459 43.3366 33.0393 42.1867 33.3736 41.0966C33.7079 40.0064 34.2752 39.0018 35.036 38.1525C35.7969 37.3032 36.7333 36.6293 37.7803 36.1776C38.8273 35.7259 39.96 35.5071 41.0999 35.5364C43.5441 35.5921 45.8868 36.5247 47.7006 38.1641C49.5143 39.8034 50.6782 42.0403 50.9799 44.4664C51.172 46.1716 50.8295 47.8943 49.9999 49.3964H52.4499C53.0537 47.8278 53.2698 46.1365 53.0799 44.4664C52.695 41.471 51.2478 38.7132 49.0016 36.6946C46.7554 34.6759 43.8592 33.5304 40.8399 33.4664C39.4371 33.4375 38.0447 33.7117 36.7576 34.2703C35.4706 34.8289 34.3192 35.6586 33.3822 36.7029C32.4452 37.7472 31.7446 38.9814 31.3283 40.3212C30.912 41.6611 30.7897 43.075 30.9699 44.4664C31.1653 46.2137 31.7422 47.8967 32.6599 49.3964H35.0999Z" fill="#212189"/>
</g>
<defs>
<clipPath id="clip0_4488_23737">
<rect width="60" height="60" fill="white" transform="translate(10 10.8064)"/>
</clipPath>
</defs>
</svg>
