<svg width="80" height="81" viewBox="0 0 80 81" fill="none" xmlns="http://www.w3.org/2000/svg">
<g clip-path="url(#clip0_4488_23729)">
<path fill-rule="evenodd" clip-rule="evenodd" d="M46.6702 33.1428C46.4853 33.2634 46.2758 33.341 46.057 33.37C45.8382 33.3991 45.6156 33.3789 45.4057 33.3108C45.1957 33.2427 45.0036 33.1286 44.8435 32.9766C44.6834 32.8247 44.5592 32.6389 44.4802 32.4328C43.8102 30.8228 45.3702 29.5228 48.4802 27.7828C48.7127 28.2548 48.8497 28.768 48.8835 29.293C48.9173 29.8181 48.8472 30.3446 48.6772 30.8425C48.5072 31.3404 48.2407 31.7999 47.8929 32.1946C47.545 32.5893 47.1228 32.9115 46.6502 33.1428H46.6702ZM43.0002 20.4728C40.6926 21.5403 38.764 23.2841 37.4702 25.4728L40.0002 27.7328C40.8134 25.9887 42.2007 24.5766 43.9302 23.7328C45.5602 23.0528 46.6902 23.2128 47.1502 24.3028C47.4602 25.0428 47.0202 25.6628 45.9602 26.3028C41.9602 28.6228 39.1902 31.1728 40.5602 34.4128C41.6402 36.9728 44.1202 37.7528 46.9802 36.5528C47.925 36.1545 48.752 35.5207 49.3822 34.7119C50.0125 33.9032 50.4249 32.9463 50.5802 31.9328L51.5102 34.1428L55.3002 32.5328L51.4002 23.2928C49.7502 19.4428 46.4402 19.0128 43.0002 20.4728Z" fill="#212189"/>
<path fill-rule="evenodd" clip-rule="evenodd" d="M38.2001 39.7228C36.1071 38.3274 34.4312 36.3908 33.3508 34.1191C32.2705 31.8473 31.8259 29.3252 32.0644 26.821C32.3029 24.3167 33.2156 21.9239 34.7054 19.8969C36.1952 17.8699 38.2064 16.2846 40.5253 15.3093C42.8442 14.3341 45.384 14.0055 47.8747 14.3584C50.3654 14.7114 52.7139 15.7327 54.6705 17.3137C56.6271 18.8948 58.1188 20.9765 58.9868 23.3376C59.8548 25.6987 60.0667 28.2509 59.6001 30.7228L63.1201 29.2328C63.3036 26.3025 62.7357 23.374 61.4703 20.7247C60.2048 18.0754 58.2838 15.7932 55.8892 14.0943C53.4946 12.3955 50.7058 11.3364 47.7872 11.0174C44.8685 10.6983 41.9168 11.13 39.2117 12.2713C36.5067 13.4127 34.1379 15.226 32.33 17.5394C30.5221 19.8527 29.335 22.5895 28.8811 25.4902C28.4272 28.3909 28.7216 31.3594 29.7365 34.1145C30.7514 36.8695 32.453 39.3197 34.6801 41.2328L38.2001 39.7228Z" fill="#212189"/>
<path d="M31.5699 55.6128C31.7773 56.1996 32.1621 56.7073 32.671 57.0656C33.1798 57.424 33.7875 57.6152 34.4099 57.6128H60.1499C60.7918 57.6277 61.4205 57.4284 61.9365 57.0463C62.4526 56.6642 62.8268 56.1211 62.9999 55.5028L67.1199 40.0028C67.2287 39.5656 67.2357 39.1093 67.1401 38.669C67.0446 38.2287 66.8492 37.8163 66.5689 37.4635C66.2886 37.1108 65.931 36.8272 65.5238 36.6346C65.1165 36.442 64.6704 36.3456 64.2199 36.3528L25.3799 36.5028" fill="#FFCA61"/>
<path d="M31.5699 55.6128C31.7773 56.1996 32.1621 56.7073 32.671 57.0656C33.1798 57.424 33.7875 57.6152 34.4099 57.6128H60.1499C60.7918 57.6277 61.4205 57.4284 61.9365 57.0463C62.4526 56.6642 62.8268 56.1211 62.9999 55.5028L67.1199 40.0028C67.2287 39.5656 67.2357 39.1093 67.1401 38.669C67.0446 38.2287 66.8492 37.8163 66.5689 37.4635C66.2886 37.1108 65.931 36.8272 65.5238 36.6346C65.1165 36.442 64.6704 36.3456 64.2199 36.3528L25.3799 36.5028" stroke="#212189" stroke-width="1.5" stroke-linecap="round" stroke-linejoin="round"/>
<path d="M34.4224 66.5509C34.9066 64.3445 33.4713 62.1547 31.2164 61.6598C28.9616 61.1649 26.741 62.5522 26.2568 64.7585C25.7725 66.9648 27.2078 69.1546 29.4627 69.6496C31.7176 70.1445 33.9381 68.7572 34.4224 66.5509Z" fill="#FFE98F" stroke="#212189" stroke-width="1.5" stroke-linecap="round" stroke-linejoin="round"/>
<path d="M58.3686 66.1571C58.843 63.9434 57.3935 61.7559 55.1311 61.2711C52.8687 60.7863 50.6502 62.1878 50.1758 64.4015C49.7014 66.6151 51.1509 68.8027 53.4133 69.2875C55.6757 69.7723 57.8942 68.3707 58.3686 66.1571Z" fill="#FFE98F" stroke="#212189" stroke-width="1.50337" stroke-linecap="round" stroke-linejoin="round"/>
<path d="M27.7701 55.6128C27.9775 56.1995 28.3623 56.7073 28.8712 57.0656C29.38 57.4239 29.9877 57.6152 30.6101 57.6128H56.3501C56.9917 57.618 57.6171 57.411 58.1289 57.024C58.6407 56.6369 59.0103 56.0916 59.1801 55.4728L63.3001 39.9728C63.4089 39.5356 63.4158 39.0792 63.3203 38.639C63.2248 38.1987 63.0293 37.7862 62.7491 37.4335C62.4688 37.0807 62.1112 36.7971 61.7039 36.6045C61.2966 36.412 60.8505 36.3155 60.4001 36.3228L21.5601 36.4728" fill="white"/>
<path d="M27.7701 55.6128C27.9775 56.1995 28.3623 56.7073 28.8712 57.0656C29.38 57.4239 29.9877 57.6152 30.6101 57.6128H56.3501C56.9917 57.618 57.6171 57.411 58.1289 57.024C58.6407 56.6369 59.0103 56.0916 59.1801 55.4728L63.3001 39.9728C63.4089 39.5356 63.4158 39.0792 63.3203 38.639C63.2248 38.1987 63.0293 37.7862 62.7491 37.4335C62.4688 37.0807 62.1112 36.7971 61.7039 36.6045C61.2966 36.412 60.8505 36.3155 60.4001 36.3228L21.5601 36.4728" fill="white"/>
<path d="M27.7701 55.6128C27.9775 56.1995 28.3623 56.7073 28.8712 57.0656C29.38 57.4239 29.9877 57.6152 30.6101 57.6128H56.3501C56.9917 57.618 57.6171 57.411 58.1289 57.024C58.6407 56.6369 59.0103 56.0916 59.1801 55.4728L63.3001 39.9728C63.4089 39.5356 63.4158 39.0792 63.3203 38.639C63.2248 38.1987 63.0293 37.7862 62.7491 37.4335C62.4688 37.0807 62.1112 36.7971 61.7039 36.6045C61.2966 36.412 60.8505 36.3155 60.4001 36.3228L21.5601 36.4728" stroke="#212189" stroke-width="1.5" stroke-linecap="round" stroke-linejoin="round"/>
<path d="M8.7998 30.4328H17.6098C18.1849 30.4309 18.7459 30.6106 19.2128 30.9464C19.6797 31.2822 20.0286 31.7569 20.2098 32.3028L27.8398 55.7728" stroke="#212189" stroke-width="1.5" stroke-linecap="round" stroke-linejoin="round"/>
</g>
<defs>
<clipPath id="clip0_4488_23729">
<rect width="60" height="60" fill="white" transform="translate(8 10.6128)"/>
</clipPath>
</defs>
</svg>
