<svg width="121" height="30" viewBox="0 0 121 30" fill="none" xmlns="http://www.w3.org/2000/svg">
<path d="M107.418 9.90551C108.098 9.90551 108.657 9.55137 108.732 9.09383L109.403 1.48857C109.403 0.736858 108.525 0.119751 107.42 0.119751C106.317 0.119751 105.44 0.736855 105.44 1.4887L106.11 9.09383C106.184 9.55124 106.743 9.90551 107.421 9.90551H107.418ZM103.318 12.281C103.659 11.6918 103.633 11.0297 103.274 10.7355L97.0389 6.35051C96.3906 5.97411 95.4185 6.42717 94.8669 7.38634C94.3133 8.3443 94.4114 9.41419 95.058 9.79072L101.962 13.0136C102.394 13.174 102.982 12.8653 103.32 12.2765L103.318 12.281ZM111.522 12.2769C111.862 12.8657 112.448 13.1745 112.88 13.014L119.784 9.79113C120.435 9.41474 120.527 8.34471 119.979 7.38675C119.424 6.42853 118.45 5.97452 117.804 6.35092L111.568 10.7359C111.212 11.0297 111.185 11.6924 111.524 12.2814L111.522 12.2769ZM107.418 19.4057C108.098 19.4057 108.657 19.7568 108.732 20.2148L109.403 27.8189C109.403 28.573 108.525 29.1887 107.42 29.1887C106.317 29.1887 105.44 28.573 105.44 27.8189L106.11 20.2148C106.184 19.7568 106.743 19.4057 107.421 19.4057H107.418ZM111.522 17.0296C111.862 16.4393 112.448 16.1332 112.88 16.2954L119.784 19.5161C120.435 19.8929 120.527 20.9639 119.979 21.9227C119.424 22.8778 118.45 23.333 117.804 22.9571L111.568 18.5762C111.212 18.2801 111.185 17.617 111.524 17.0284H111.521L111.522 17.0296ZM103.318 17.0288C103.659 17.617 103.633 18.2801 103.274 18.5767L97.0389 22.9575C96.3906 23.3334 95.4185 22.8782 94.8669 21.9231C94.3133 20.9643 94.4114 19.8933 95.058 19.5165L101.962 16.2958C102.394 16.1336 102.982 16.4397 103.32 17.0302H103.318" fill="#FDBB30"/>
<path d="M68.0874 18.5625C68.0874 18.7959 68.0667 19.0366 68.0029 19.248C67.7385 20.1261 66.8317 20.8685 65.6972 20.8685C64.7513 20.8685 64 20.3299 64 19.1921C64 17.4509 65.9117 16.97 68.0879 16.9821L68.0874 18.5624V18.5625ZM71.5007 15.528C71.5007 12.6568 70.277 10.1303 66.142 10.1303C64.0194 10.1303 62.3347 10.728 61.4152 11.2607L62.0887 13.569C62.929 13.0371 64.2684 12.5968 65.5359 12.5968C67.6333 12.5909 67.9768 13.7876 67.9768 14.5534V14.7347C63.4048 14.7279 60.5146 16.315 60.5146 19.5482C60.5146 21.5238 61.9866 23.3741 64.5454 23.3741C66.1177 23.3741 67.4346 22.745 68.2227 21.7361H68.3006C68.3006 21.7361 68.822 23.9264 71.7009 23.0884C71.5507 22.1775 71.5013 21.2052 71.5013 20.036L71.5009 15.528H71.5007ZM0.263672 6.22002C0.263672 6.22002 3.25139 18.4935 3.72847 20.4854C4.28501 22.8104 5.28804 23.6663 8.17857 23.0884L10.044 15.4793C10.517 13.5884 10.8336 12.2402 11.1384 10.3186H11.1915C11.4054 12.2605 11.709 13.5942 12.0983 15.4856C12.0983 15.4856 12.8573 18.9402 13.2467 20.754C13.6364 22.5674 14.7214 23.7109 17.553 23.0884L21.9982 6.21948H18.4103L16.892 13.5131C16.4838 15.6352 16.1138 17.2954 15.8282 19.2364H15.7774C15.518 17.3125 15.1876 15.72 14.7731 13.6519L13.1936 6.21948H9.45459L7.76415 13.4645C7.28571 15.6667 6.83704 17.4442 6.55282 19.3206H6.50112C6.20932 17.5537 5.82089 15.3188 5.40051 13.1881C5.40051 13.1881 4.39693 8.0058 4.04396 6.21948L0.263672 6.22002ZM28.7852 18.5625C28.7852 18.7959 28.7645 19.0366 28.6998 19.248C28.4359 20.1261 27.5285 20.8685 26.3941 20.8685C25.448 20.8685 24.6978 20.3299 24.6978 19.1921C24.6978 17.4509 26.609 16.97 28.7856 16.9821L28.7852 18.5624V18.5625ZM32.1982 15.528C32.1982 12.6568 30.9744 10.1303 26.8402 10.1303C24.717 10.1303 23.0311 10.728 22.1121 11.2607L22.7847 13.569C23.6249 13.0371 24.9643 12.5968 26.2322 12.5968C28.3311 12.5909 28.6746 13.7876 28.6746 14.5534V14.7347C24.1007 14.7279 21.2119 16.315 21.2119 19.5482C21.2119 21.5238 22.6831 23.3741 25.24 23.3741C26.8145 23.3741 28.1305 22.745 28.9196 21.7361H28.9965C28.9965 21.7361 29.5194 23.9264 32.3977 23.0884C32.2472 22.1775 32.1982 21.2052 32.1982 20.036V15.528ZM37.8942 19.5076V6.22002H34.4768V23.0889H37.8942V19.5076ZM82.6004 6.22002V18.6639C82.6004 20.3803 82.9232 21.5816 83.6114 22.3167C84.2145 22.9595 85.2054 23.3755 86.3937 23.3755C87.4044 23.3755 88.3981 23.1821 88.8671 23.0078L88.823 20.3312C88.4741 20.4167 88.0735 20.4859 87.525 20.4859C86.3605 20.4859 85.9712 19.738 85.9712 18.1978V13.4365H88.9471V10.2085H85.9712V6.22002H82.6004ZM73.7795 10.4164V23.0889H77.3048V16.6004C77.3048 16.2496 77.326 15.9441 77.3813 15.6645C77.6421 14.3047 78.6788 13.4365 80.168 13.4365C80.5762 13.4365 80.8684 13.4811 81.185 13.5261V10.2085C80.9193 10.1555 80.739 10.1307 80.4085 10.1307C79.093 10.1307 77.5962 10.9817 76.9681 12.8072H76.8728V10.4164H73.7795ZM40.2871 10.4164V23.0889H43.7217V15.6577C43.7217 15.309 43.7626 14.9402 43.8831 14.6206C44.1677 13.8724 44.8623 12.9961 45.9706 12.9961C47.3572 12.9961 48.0047 14.1708 48.0047 15.866V23.088H51.4366V15.5663C51.4366 15.2336 51.4819 14.8325 51.5801 14.5391C51.8618 13.6876 52.61 12.9952 53.6405 12.9952C55.0455 12.9952 55.7199 14.1492 55.7199 16.1446V23.0876H59.1542V15.6234C59.1542 11.6875 57.1605 10.1294 54.9098 10.1294C53.9139 10.1294 53.127 10.3795 52.4154 10.8167C51.8179 11.1858 51.2819 11.7087 50.8143 12.3961H50.7635C50.2208 11.0304 48.9438 10.1301 47.2798 10.1301C45.142 10.1301 44.1812 11.2166 43.5984 12.1379H43.5473V10.416H40.2871" fill="#1A75CF"/>
</svg>
