<svg width="106" height="95" viewBox="0 0 106 95" fill="none" xmlns="http://www.w3.org/2000/svg">
<path d="M35.0865 94.3928C35.0865 94.3928 34.4928 94.4925 33.9305 93.6701L20.4337 74.0829L22.1833 67.4542L29.5878 86.6925L29.9939 87.0164L33.1807 86.3187L34.5553 93.5704C34.5553 93.5704 34.6803 94.2931 35.0865 94.3928Z" fill="#212189"/>
<path d="M1.15621 11.0362L1 11.4848L6.96732 27.309C6.96732 27.309 7.0298 27.4585 7.43596 27.5582C7.43596 27.5582 11.2788 27.7576 12.341 30.1499C12.341 30.1499 13.372 32.1684 11.9661 33.9129C11.9661 33.9129 11.1851 34.7601 10.4352 35.2336C10.4352 35.2336 10.0291 35.3831 10.2165 35.8317L29.5869 86.8681C29.5869 86.8681 29.8368 87.1921 30.6179 87.0176L69.9835 77.4981C69.9835 77.4981 70.3584 77.3486 70.2022 76.8751L51.0193 26.3371C51.0193 26.3371 50.8631 25.9135 50.5507 25.9135C50.5507 25.9135 47.3951 25.9135 45.958 24.194C45.958 24.194 43.1774 21.1039 46.864 18.5122L47.4889 18.1384C47.4889 18.1384 47.7701 18.0138 47.5826 17.3659L42.3651 3.31096L41.6778 1.71607C41.6778 1.71607 41.4903 1.36719 41.0217 1.41703L1.15621 11.0362Z" fill="white"/>
<path d="M16.3715 36.5287L16.1528 36.9025L32.8676 81.1108L33.3362 81.36L63.2978 74.1332L63.454 73.7843L48.3951 34.1613L48.0202 33.638L47.5516 33.4386L40.9907 30.8968L40.1159 30.847L16.3715 36.5287Z" fill="#E6E6FC"/>
<path d="M11.8183 14.041L9.87389 14.508L12.7292 22.0719L14.6736 21.6049L11.8183 14.041Z" fill="#E6E6FC"/>
<path d="M28.7981 9.96078L26.2553 10.5715L29.1106 18.1354L31.6534 17.5247L28.7981 9.96078Z" fill="#E6E6FC"/>
<path d="M34.5613 8.59133L32.4673 9.09424L35.3226 16.6582L37.4166 16.1553L34.5613 8.59133Z" fill="#E6E6FC"/>
<path d="M13.9035 13.55L12.7954 13.8161L15.6511 21.3811L16.7592 21.115L13.9035 13.55Z" fill="#E6E6FC"/>
<path d="M25.0867 10.8577L23.9787 11.1238L26.8344 18.6888L27.9424 18.4227L25.0867 10.8577Z" fill="#E6E6FC"/>
<path d="M30.5558 9.55752L29.4478 9.82362L32.3035 17.3886L33.4115 17.1225L30.5558 9.55752Z" fill="#E6E6FC"/>
<path d="M36.5878 8.11481L35.4798 8.38092L38.3355 15.9459L39.4435 15.6798L36.5878 8.11481Z" fill="#E6E6FC"/>
<path d="M22.1049 11.5701L16.3613 12.9495L19.2166 20.5135L24.9602 19.134L22.1049 11.5701Z" fill="#E6E6FC"/>
<path d="M35.0553 25.6881L42.9909 23.7693" stroke="#212189" stroke-width="1.50969" stroke-miterlimit="10" stroke-linecap="round" stroke-linejoin="round"/>
<path d="M25.0576 28.1054L32.9308 26.1866" stroke="#212189" stroke-width="1.50969" stroke-miterlimit="10" stroke-linecap="round" stroke-linejoin="round"/>
<path d="M15.0278 30.5229L22.9321 28.604" stroke="#212189" stroke-width="1.50969" stroke-miterlimit="10" stroke-linecap="round" stroke-linejoin="round"/>
<path d="M7.5292 27.6071C10.0598 27.632 12.3093 29.1023 12.6842 31.1706C12.9654 32.7406 11.9969 34.2607 10.4972 35.1579C10.3723 35.2326 10.2785 35.3074 10.1848 35.432C10.1536 35.5566 10.1536 35.6563 10.1848 35.731C10.1848 35.731 24.9625 74.6562 29.5552 86.7425C29.6489 86.9917 29.9926 87.1412 30.305 87.0665C39.3029 84.8984 69.7956 77.5221 69.7956 77.5221C70.1393 77.4473 70.3267 77.1732 70.233 76.8991C65.5466 64.3892 56.1114 38.846 50.9563 26.2365C50.8626 26.0122 50.5502 25.9623 50.5502 25.9623C47.9883 25.9623 45.3639 24.4921 44.9578 22.3988C44.6454 20.7042 45.6451 19.0844 47.3634 18.2122C47.3947 18.1873 47.4259 18.1624 47.4572 18.1374C47.6759 17.9381 47.7384 17.6889 47.6446 17.4397C47.6446 17.4397 43.2394 5.80198 41.7086 1.74C41.6148 1.4908 41.2711 1.34128 40.9587 1.41604L1.49941 10.9355C1.15574 11.0103 0.968281 11.3093 1.06201 11.5834L6.99809 27.2582C7.06058 27.4077 7.21681 27.5323 7.40426 27.5822L7.5292 27.6071Z" stroke="#212189" stroke-width="1.50969" stroke-miterlimit="10" stroke-linecap="round" stroke-linejoin="round"/>
<path d="M20.5899 15.6207L20.3712 16.0443L23.3392 32.3919C23.3392 32.3919 23.3704 32.5414 23.7454 32.691C23.7454 32.691 27.4945 33.3389 28.1193 35.8309C28.1193 35.8309 28.7754 37.9491 27.0258 39.4942C27.0258 39.4942 26.0886 40.2418 25.2762 40.6156C25.2762 40.6156 24.8701 40.7152 24.9638 41.1887L34.6178 93.9695C34.6178 93.9695 34.8052 94.3184 35.5863 94.2436L76.2953 89.4839C76.2953 89.4839 76.7015 89.3842 76.639 88.9107L67.0788 36.6782C67.0788 36.6782 67.0163 36.2296 66.6726 36.2047C66.6726 36.2047 63.5484 35.8309 62.4549 33.9619C62.4549 33.9619 60.2679 30.5728 64.3919 28.4545L65.0793 28.1555C65.0793 28.1555 65.3917 28.0807 65.3292 27.383L62.7673 12.8795L62.3924 11.2098C62.3924 11.2098 62.2674 10.8609 61.7988 10.836L20.5899 15.6207Z" fill="white"/>
<path d="M31.3139 42.5676L31.0327 42.9165L39.3432 88.6199L39.7494 88.8941L70.7108 85.3056L70.9295 84.9816L63.4313 44.0129L63.1501 43.4647L62.7127 43.1906L56.7141 39.926L55.8393 39.7516L31.3139 42.5676Z" fill="#E6E6FC"/>
<path d="M49.24 76.0426L59.3492 49.3222L53.3631 50.2361L43.2537 76.9566L49.24 76.0426Z" fill="#A8A9FC" stroke="#212189" stroke-width="1.50969" stroke-linecap="round" stroke-linejoin="round"/>
<path d="M59.5186 74.3441C61.6852 74.0133 63.1713 71.9932 62.838 69.8321C62.5047 67.671 60.4782 66.1872 58.3116 66.518C56.145 66.8487 54.6588 68.8688 54.9921 71.0299C55.3254 73.1911 57.352 74.6748 59.5186 74.3441Z" fill="#A8A9FC" stroke="#212189" stroke-width="1.50969" stroke-linecap="round" stroke-linejoin="round"/>
<path d="M43.4278 59.6431C45.5943 59.3123 47.0804 57.2922 46.7471 55.1311C46.4138 52.9699 44.3873 51.4862 42.2207 51.8169C40.0542 52.1477 38.5679 54.1678 38.9012 56.3289C39.2345 58.49 41.2612 59.9738 43.4278 59.6431Z" fill="#A8A9FC" stroke="#212189" stroke-width="1.50969" stroke-linecap="round" stroke-linejoin="round"/>
<path d="M30.5803 19.8638L28.5704 20.0956L29.9877 27.9139L31.9975 27.6821L30.5803 19.8638Z" fill="#E6E6FC"/>
<path d="M48.1354 17.8358L45.5071 18.1389L46.9244 25.9572L49.5527 25.6541L48.1354 17.8358Z" fill="#E6E6FC"/>
<path d="M54.0756 17.1651L51.9111 17.4147L53.3283 25.233L55.4928 24.9834L54.0756 17.1651Z" fill="#E6E6FC"/>
<path d="M32.7428 19.6175L31.5975 19.7495L33.0148 27.5681L34.1601 27.436L32.7428 19.6175Z" fill="#E6E6FC"/>
<path d="M44.2994 18.2709L43.1541 18.403L44.5714 26.2216L45.7167 26.0895L44.2994 18.2709Z" fill="#E6E6FC"/>
<path d="M49.9227 17.6241L48.7773 17.7562L50.1946 25.5748L51.34 25.4427L49.9227 17.6241Z" fill="#E6E6FC"/>
<path d="M56.1725 16.901L55.0272 17.0331L56.4445 24.8517L57.5898 24.7196L56.1725 16.901Z" fill="#E6E6FC"/>
<path d="M41.2151 18.6424L35.2783 19.3271L36.6955 27.1454L42.6323 26.4607L41.2151 18.6424Z" fill="#E6E6FC"/>
<path d="M51.3938 34.1117L59.5794 33.1648" stroke="#212189" stroke-width="1.50969" stroke-miterlimit="10" stroke-linecap="round" stroke-linejoin="round"/>
<path d="M41.0538 35.3329L49.2081 34.3611" stroke="#212189" stroke-width="1.50969" stroke-miterlimit="10" stroke-linecap="round" stroke-linejoin="round"/>
<path d="M30.6815 36.5286L38.867 35.5816" stroke="#212189" stroke-width="1.50969" stroke-miterlimit="10" stroke-linecap="round" stroke-linejoin="round"/>
<path d="M23.8068 32.7404C26.3062 33.0643 28.2432 34.7838 28.2432 36.8522C28.2432 38.4471 26.9935 39.8177 25.3376 40.5404C25.2126 40.5902 25.0877 40.665 24.994 40.7647C24.9315 40.8643 24.9002 40.9889 24.9315 41.0637C24.9315 41.0637 32.3047 81.3097 34.5854 93.7946C34.6479 94.0438 34.9291 94.2432 35.2728 94.1934C44.5518 93.1218 76.1067 89.4336 76.1067 89.4336C76.4504 89.3838 76.7004 89.1346 76.6379 88.8605C74.3259 75.9269 69.7333 49.5615 66.9839 36.4784C66.9215 36.2541 66.6403 36.1544 66.6403 36.1544C64.0784 35.8554 61.7664 34.0861 61.7664 31.9928C61.7664 30.2733 63.0786 28.7781 64.9219 28.1302C64.9532 28.1052 65.0157 28.1052 65.0469 28.0803C65.2969 27.9308 65.4218 27.6567 65.3593 27.4075C65.3593 27.4075 63.1724 15.3711 62.3913 11.1845C62.3288 10.9104 62.0164 10.7359 61.7039 10.7608L20.9012 15.5704C20.5575 15.6203 20.3076 15.8695 20.3701 16.1436L23.3381 32.3417C23.3694 32.4912 23.4943 32.6407 23.6818 32.7155L23.8068 32.7404Z" stroke="#212189" stroke-width="1.50969" stroke-miterlimit="10" stroke-linecap="round" stroke-linejoin="round"/>
<path d="M82.8381 58.0006C85.6373 58.0006 87.9065 55.7386 87.9065 52.9483C87.9065 50.1581 85.6373 47.8961 82.8381 47.8961C80.0389 47.8961 77.7697 50.1581 77.7697 52.9483C77.7697 55.7386 80.0389 58.0006 82.8381 58.0006Z" fill="#FCF9E8" stroke="#212189" stroke-width="1.50969" stroke-linecap="round" stroke-linejoin="round"/>
<path d="M96.3648 84.4432C100.919 84.4432 104.61 80.7633 104.61 76.2239C104.61 71.6845 100.919 68.0046 96.3648 68.0046C91.8109 68.0046 88.1192 71.6845 88.1192 76.2239C88.1192 80.7633 91.8109 84.4432 96.3648 84.4432Z" fill="#E6E6FC" stroke="#212189" stroke-width="1.50969" stroke-linecap="round" stroke-linejoin="round"/>
<path d="M73.9019 34.6516L78.3526 27.5006C78.4594 27.3266 78.5221 27.1291 78.5353 26.9255C78.5485 26.7218 78.5117 26.5181 78.4282 26.3318L75.0367 18.6277C74.9436 18.4136 74.9123 18.178 74.946 17.947C74.9798 17.7161 75.0775 17.4991 75.228 17.3203C75.3785 17.1416 75.5759 17.0081 75.7982 16.935C76.0205 16.8618 76.2589 16.8517 76.4866 16.906L84.6944 18.9043C84.8919 18.9529 85.0982 18.9531 85.2958 18.905C85.4934 18.8568 85.6764 18.7616 85.8291 18.6277L92.1331 13.0226C92.3086 12.8676 92.524 12.7645 92.755 12.7248C92.986 12.6851 93.2236 12.7104 93.441 12.7978C93.6584 12.8853 93.8471 13.0316 93.9857 13.22C94.1244 13.4085 94.2076 13.6317 94.226 13.8647L94.8438 22.2598C94.8585 22.4628 94.9223 22.6593 95.0299 22.8322C95.1375 23.0052 95.2857 23.1495 95.4616 23.2527L102.762 27.5006C102.961 27.6204 103.124 27.7929 103.231 27.9992C103.339 28.2056 103.387 28.4375 103.37 28.6693C103.353 28.9011 103.272 29.1237 103.135 29.3123C102.999 29.5009 102.813 29.6482 102.598 29.7377L94.7808 32.9298C94.5916 33.0064 94.424 33.1277 94.2922 33.2831C94.1604 33.4386 94.0685 33.6236 94.0243 33.8222L92.234 42.054C92.1833 42.2827 92.0695 42.4928 91.9054 42.6605C91.7413 42.8281 91.5335 42.9468 91.3053 43.003C91.0772 43.0592 90.8379 43.0507 90.6143 42.9785C90.3908 42.9063 90.1919 42.7733 90.0402 42.5945L84.5935 36.1598C84.4594 36.005 84.2894 35.8851 84.0982 35.8106C83.907 35.7362 83.7005 35.7093 83.4966 35.7324L75.0997 36.5619C74.8658 36.5851 74.6301 36.5426 74.4192 36.4393C74.2083 36.3361 74.0305 36.1761 73.9059 35.9774C73.7814 35.7788 73.715 35.5494 73.7143 35.3151C73.7136 35.0809 73.7786 34.851 73.9019 34.6516Z" fill="#A8A9FC" stroke="#212189" stroke-width="1.25807" stroke-linecap="round" stroke-linejoin="round"/>
</svg>
