<svg width="109" height="31" viewBox="0 0 109 31" fill="none" xmlns="http://www.w3.org/2000/svg">
<path d="M51.921 23.6596H48.603C48.603 23.6596 48.5747 23.6596 48.5747 23.6312L45.7105 20.1627L42.8747 23.6596L42.8463 23.688H40.209C40.1807 23.688 40.1807 23.688 40.1807 23.6596C40.1807 23.6596 40.1807 23.6312 40.1807 23.6027L44.3777 18.4284L40.2374 13.311C40.2374 13.2826 40.2374 13.2826 40.2374 13.2541L40.2657 13.2257H43.5836C43.5836 13.2257 43.612 13.2257 43.612 13.2541L46.1075 16.353L48.6598 13.2541L48.6881 13.2257H51.3821C51.4105 13.2257 51.4105 13.2257 51.4105 13.2541C51.4105 13.2826 51.4105 13.2826 51.4105 13.311L47.4687 18.0588L51.9493 23.6027C51.9493 23.6027 51.9493 23.6312 51.9493 23.6596C51.9493 23.6596 51.921 23.6596 51.921 23.6596Z" fill="white"/>
<path d="M69.8024 15.0812C68.3278 15.0812 67.3353 15.9625 67.0517 17.5262H72.0427V17.4125C72.0427 16.19 71.1353 15.0812 69.8024 15.0812ZM74.6233 19.1183L74.5949 19.1467H67.0233C67.1935 20.9094 68.3278 21.9329 70.1711 21.9329C71.3054 21.9329 72.5248 21.5349 74.2263 20.6251C74.2546 20.5967 74.283 20.6251 74.283 20.682V23.0133C74.283 23.0417 74.283 23.0417 74.2547 23.0417C72.6666 23.724 71.0502 24.1789 69.8024 24.1789C66.5412 24.1789 64.1875 21.7907 64.1875 18.5213C64.1875 15.2518 66.5412 12.8636 69.8024 12.8636C72.78 12.8636 74.68 14.8822 74.68 17.6399C74.7084 18.038 74.6233 19.0899 74.6233 19.1183Z" fill="white"/>
<path d="M90.0022 11.0818C89.0664 11.0818 88.3291 10.3426 88.3291 9.43287C88.3291 8.49467 89.0948 7.72705 90.0022 7.72705C90.9381 7.72705 91.6754 8.49467 91.6754 9.43287C91.6754 10.3426 90.9381 11.0818 90.0022 11.0818ZM88.641 23.6764C88.6127 23.6764 88.6127 23.648 88.6127 23.6196V13.2709C88.6127 13.2425 88.6127 13.2425 88.641 13.2425H91.3634C91.3918 13.2425 91.3918 13.2709 91.3918 13.2709V23.6196C91.3918 23.648 91.3634 23.6764 91.3634 23.6764H88.641Z" fill="white"/>
<path d="M56.9033 22.1011C56.3928 22.1011 55.9108 22.0443 55.3152 21.8737V15.2495C55.9958 15.022 56.5914 14.9367 57.1585 14.9367C59.0585 14.9367 60.3346 16.3298 60.3346 18.4336C60.363 20.6512 59.0018 22.1011 56.9033 22.1011ZM57.6406 12.8329C56.8749 12.8329 56.0809 12.975 55.2869 13.2593H52.5645C52.5361 13.2593 52.5361 13.2878 52.5361 13.2878V30.2322C53.3585 30.1185 54.3511 29.8342 55.3436 29.1234V23.9775C56.0242 24.0628 56.563 24.1481 57.1018 24.1481C60.8167 24.1481 63.2555 21.9021 63.2555 18.4336C63.2272 15.1357 60.9301 12.8329 57.6406 12.8329Z" fill="white"/>
<path d="M83.6531 21.2432C82.8024 21.698 82.0367 21.8971 81.3278 21.8971C79.6263 21.8971 78.6337 20.703 78.6337 18.7129C78.6337 16.41 79.9382 14.9032 81.9233 14.9032C82.4621 14.9032 83.0009 15.0454 83.6531 15.3297V21.2432ZM83.6531 7.76722V13.169C82.8591 12.9415 82.1502 12.8278 81.4412 12.8278C78.2084 12.8278 75.7412 15.2728 75.7412 18.5423C75.7412 21.7833 77.8964 24.1146 80.874 24.1146C81.8949 24.1146 82.8591 23.8587 83.9934 23.2617V24.1999C84.7308 24.0578 85.6099 23.745 86.4606 23.148V6.63C85.6382 6.77216 84.6457 7.05646 83.6531 7.76722Z" fill="white"/>
<path d="M100.872 21.2203C100.049 21.7036 99.3405 21.9311 98.7166 21.9311C96.9017 21.9311 95.8241 20.737 95.8241 18.7184C95.8241 16.444 97.1002 14.9088 99.0002 14.9088C99.5107 14.9088 100.135 15.1078 100.872 15.5058V21.2203ZM103.679 13.1177C103.679 13.0608 103.623 13.004 103.566 13.004H101.354C101.297 13.004 101.241 13.0608 101.241 13.1177V13.4873H101.184C100.163 13.0324 99.2838 12.8334 98.433 12.8334C95.3704 12.8334 92.9883 15.3637 92.9883 18.6331C92.9883 21.9311 95.1435 24.1202 98.3196 24.1202C99.1704 24.1202 100.276 24.0633 101.297 22.8693V24.2055C102.035 24.0633 102.885 23.7506 103.679 23.1536V13.1177Z" fill="white"/>
<path d="M32.6348 21.0409H39.4974C39.384 21.8085 39.1288 22.7182 38.5333 23.628H32.6348H31.4721H31.387C30.5079 23.628 29.7989 22.9457 29.7139 22.0928V22.0644V15.0136V8.50312V8.47469C29.7989 7.62178 30.5079 6.93945 31.387 6.93945C31.4154 6.93945 31.4437 6.93945 31.4721 6.93945H39.4691C39.3556 7.70707 39.1004 8.61684 38.5049 9.5266H32.6348V13.2225H38.4482C38.4765 13.2225 38.5049 13.251 38.5049 13.251V15.8097C38.5049 15.8381 38.4765 15.8381 38.4482 15.8381H32.6348V21.0409Z" fill="white"/>
<path d="M51.921 23.66H48.603H48.5747L45.7389 20.163L42.8747 23.66H42.8463H40.209C40.1807 23.66 40.1807 23.66 40.1807 23.6315C40.1807 23.6315 40.1807 23.6031 40.1807 23.5747L44.3777 18.4004L40.2374 13.2829C40.2374 13.2545 40.2374 13.2545 40.2374 13.2261L40.2657 13.1976H43.5836C43.5836 13.1976 43.612 13.1976 43.612 13.2261L46.1075 16.325L48.6598 13.2261L48.6881 13.1976H51.3822C51.4105 13.1976 51.4105 13.1976 51.4105 13.2261C51.4105 13.2545 51.4105 13.2545 51.4105 13.2829L47.4687 18.0308L51.9493 23.6031C51.9493 23.6031 51.9777 23.6315 51.9493 23.66C51.9493 23.66 51.921 23.66 51.921 23.66Z" fill="white"/>
<path d="M69.8024 15.0813C68.3278 15.0813 67.3353 15.9627 67.0517 17.5263H72.0427V17.4126C72.0427 16.1901 71.1353 15.0813 69.8024 15.0813ZM74.6233 19.1184L74.5949 19.1469H67.0233C67.1651 20.9095 68.3278 21.933 70.1711 21.933C71.3054 21.933 72.5248 21.535 74.2263 20.6252C74.2546 20.5968 74.283 20.6252 74.283 20.6821V23.0134C74.283 23.0418 74.283 23.0418 74.2547 23.0418C72.6666 23.7241 71.0502 24.179 69.8024 24.179C66.5412 24.179 64.1875 21.7909 64.1875 18.5214C64.1875 15.2519 66.5412 12.8638 69.8024 12.8638C72.78 12.8638 74.68 14.8823 74.68 17.6401C74.7084 18.0381 74.6233 19.0616 74.6233 19.1184Z" fill="white"/>
<path d="M90.0022 11.0818C89.0664 11.0818 88.3291 10.3426 88.3291 9.43287C88.3291 8.49467 89.0948 7.72705 90.0022 7.72705C90.9381 7.72705 91.6754 8.49467 91.6754 9.43287C91.6754 10.3426 90.9381 11.0818 90.0022 11.0818ZM88.641 23.6764C88.6127 23.6764 88.6127 23.648 88.6127 23.648V13.2994C88.6127 13.2709 88.6127 13.2709 88.641 13.2709H91.3634C91.3918 13.2709 91.3918 13.2994 91.3918 13.2994V23.648C91.3918 23.6764 91.3634 23.6764 91.3634 23.6764H88.641Z" fill="white"/>
<path d="M56.9033 22.1016C56.4212 22.1016 55.9108 22.0448 55.3152 21.8742V15.2499C55.9958 15.0225 56.5914 14.9372 57.1585 14.9372C59.0585 14.9372 60.3346 16.3303 60.3346 18.4341C60.363 20.6517 59.0018 22.1016 56.9033 22.1016ZM57.6406 12.8334C56.8749 12.8334 56.0809 12.9755 55.2869 13.2598H52.5645C52.5361 13.2598 52.5361 13.2883 52.5361 13.3167V30.2611C53.3585 30.1474 54.3511 29.8631 55.3436 29.1523V24.0065C56.0242 24.0918 56.563 24.1771 57.1018 24.1771C60.8167 24.1771 63.2555 21.9311 63.2555 18.4626C63.2272 15.1362 60.9301 12.8334 57.6406 12.8334Z" fill="white"/>
<path d="M83.6531 21.2432C82.8024 21.698 82.0367 21.8971 81.3278 21.8971C79.6263 21.8971 78.6337 20.703 78.6337 18.6844C78.6337 16.3816 79.9382 14.8748 81.9233 14.8748C82.4621 14.8748 83.0009 15.0169 83.6531 15.3012V21.2432ZM83.6531 7.76722V13.169C82.8591 12.9415 82.1502 12.8278 81.4412 12.8278C78.2084 12.8278 75.7412 15.2728 75.7412 18.5423C75.7412 21.7833 77.8964 24.1146 80.874 24.1146C81.8949 24.1146 82.8591 23.8587 83.9934 23.2617V24.1999C84.7308 24.0578 85.6099 23.745 86.4606 23.148V6.63C85.6382 6.77216 84.6457 7.05646 83.6531 7.76722Z" fill="white"/>
<path d="M100.872 21.2204C100.049 21.7037 99.3405 21.9312 98.7166 21.9312C96.9017 21.9312 95.8241 20.7371 95.8241 18.7186C95.8241 16.4441 97.1002 14.9089 99.0002 14.9089C99.5107 14.9089 100.135 15.1079 100.872 15.5059V21.2204ZM103.679 13.1178C103.679 13.0609 103.623 13.0041 103.566 13.0041H101.354C101.297 13.0041 101.241 13.0609 101.241 13.1178V13.4874H101.184C100.163 13.0325 99.2838 12.8335 98.433 12.8335C95.3704 12.8335 92.9883 15.3638 92.9883 18.6333C92.9883 21.9312 95.1435 24.1203 98.3196 24.1203C99.1704 24.1203 100.276 24.0634 101.297 22.8694V24.2056C102.035 24.0634 102.885 23.7507 103.679 23.1537V13.1178Z" fill="white"/>
<path d="M32.6348 21.0411H39.4974C39.384 21.8087 39.1288 22.7185 38.5333 23.6283H32.6348H31.4721H31.387C30.5079 23.6283 29.7989 22.9459 29.7139 22.093V22.0646V15.0139V8.50336V8.47493C29.7989 7.62202 30.5079 6.9397 31.387 6.9397C31.4154 6.9397 31.4437 6.9397 31.4721 6.9397H39.4691C39.3556 7.70731 39.1004 8.61708 38.5049 9.52685H32.6348V13.2228H38.4482C38.4765 13.2228 38.5049 13.2512 38.5049 13.2512V15.8099C38.5049 15.8384 38.4765 15.8384 38.4482 15.8384H32.6348V21.0411Z" fill="white"/>
<path d="M106.61 12.8458H106.922C107.29 12.8458 107.432 12.7321 107.432 12.5047C107.432 12.2488 107.262 12.1351 106.893 12.1351H106.61V12.8458ZM106.978 11.8223C107.602 11.8223 107.943 12.0498 107.943 12.4478C107.943 12.789 107.772 12.988 107.432 13.0733L107.943 14.0968H107.404L106.95 13.1586H106.61V14.0968H106.128V11.8508H106.978V11.8223ZM105.731 11.7655C105.39 12.1067 105.22 12.5331 105.22 12.988C105.22 13.4429 105.39 13.8693 105.702 14.1821C106.043 14.5232 106.468 14.6938 106.893 14.6938C107.375 14.6938 107.801 14.5232 108.141 14.1821C108.453 13.8693 108.651 13.4429 108.651 12.988C108.651 12.5047 108.481 12.0782 108.169 11.7655C107.829 11.4243 107.432 11.2537 106.95 11.2537C106.468 11.2822 106.071 11.4528 105.731 11.7655ZM108.368 11.5949C108.737 11.9645 108.935 12.4762 108.935 13.0164C108.935 13.585 108.737 14.0683 108.34 14.4379C107.943 14.836 107.432 15.035 106.922 15.035C106.383 15.035 105.872 14.8075 105.504 14.4379C105.135 14.0399 104.908 13.5566 104.908 13.0164C104.908 12.4762 105.135 11.9645 105.504 11.5665C105.872 11.1969 106.354 10.9979 106.893 10.9979C107.489 10.9694 107.971 11.1969 108.368 11.5949Z" fill="white"/>
<path fill-rule="evenodd" clip-rule="evenodd" d="M14.744 8.2033L15.2261 9.59638L11.256 10.7904L1.01866 14.3442C0.706715 12.3825 0.876865 10.3356 1.58582 8.34545C3.85447 1.92021 10.9157 -1.46299 17.3246 0.83986C20.5574 2.0055 23.0246 4.39364 24.3574 7.29353C23.9321 7.2651 23.3649 7.29353 22.8545 7.43568L18.5724 8.65818L11.3127 2.37509L10.547 2.57411L14.744 8.2033ZM23.2815 9.1147C23.8203 8.94412 24.3875 8.60295 24.7561 8.37551C25.6636 10.9342 25.7203 13.8341 24.7278 16.5919C22.4308 23.0171 15.3979 26.4003 8.98899 24.0974C4.76362 22.5906 1.89944 19.0369 1.0487 14.9429L11.6547 12.441L15.6532 11.3038L15.9935 12.7538L15.3979 19.776L16.1352 19.5202L18.9994 10.3372L23.2815 9.1147Z" fill="white"/>
<path d="M24.0652 23.8883C23.3846 23.8883 22.9592 23.3482 22.9592 22.7227C22.9592 22.0404 23.4413 21.5286 24.0652 21.5286C24.6891 21.5286 25.1428 22.0119 25.1428 22.7227C25.1428 23.405 24.6891 23.8883 24.0652 23.8883ZM24.0652 21.3865C23.3846 21.3865 22.7891 21.8982 22.7891 22.6943C22.7891 23.4335 23.3279 24.0021 24.0652 24.0021C24.7458 24.0021 25.3413 23.4903 25.3413 22.6943C25.3413 21.9267 24.7458 21.3865 24.0652 21.3865Z" fill="white"/>
<path d="M23.758 22.601V22.1177H24.0697C24.2398 22.1177 24.4382 22.1461 24.4382 22.3452C24.4382 22.5726 24.2681 22.601 24.0697 22.601H23.758V22.601ZM24.6649 22.3736C24.6649 22.0609 24.4665 21.9187 24.0981 21.9187H23.5029V23.4824H23.758V22.8285H23.9847L24.3815 23.4824H24.6649L24.2398 22.8C24.4949 22.7716 24.6649 22.6579 24.6649 22.3736Z" fill="white"/>
</svg>
