<svg width="25" height="24" viewBox="0 0 25 24" fill="none" xmlns="http://www.w3.org/2000/svg">
<g id="icon_sports">
<path id="Icon" fill-rule="evenodd" clip-rule="evenodd" d="M12.2527 2.5C11.6301 2.5 11.0218 2.56149 10.4337 2.67873C12.1586 3.52373 13.6061 4.39432 14.823 5.36112C15.3773 4.6529 15.7522 3.88192 15.964 3.2744C14.8279 2.77637 13.5726 2.5 12.2527 2.5ZM8.34857 3.36155C10.6061 4.36589 12.3633 5.34961 13.7527 6.42781C12.995 7.00201 12.0544 7.38167 10.8992 7.36539C8.88787 7.33705 7.03169 7.52023 5.5472 7.79613C4.84222 7.92716 4.21394 8.08041 3.68807 8.24487C4.57172 6.08962 6.24526 4.34181 8.34857 3.36155ZM4.06498 9.69894C3.60776 9.84597 3.30879 9.98285 3.15008 10.084C3.05149 10.6252 3 11.1829 3 11.7527C3 13.601 3.54195 15.3227 4.47561 16.7676L15.8254 8.42216C15.5429 8.07817 15.2375 7.74686 14.9063 7.42569C13.8906 8.27301 12.5562 8.88889 10.878 8.86524C8.96599 8.8383 7.2087 9.01302 5.82129 9.27088C5.12746 9.39983 4.53404 9.54812 4.06498 9.69894ZM17.2974 3.99491C17.0215 4.71533 16.581 5.56451 15.9526 6.35087C16.3412 6.72784 16.7014 7.12057 17.0354 7.53244L19.3575 5.82502C18.7667 5.11762 18.0722 4.4998 17.2974 3.99491ZM20.2231 7.05043L17.9116 8.75004C18.1844 9.17907 18.434 9.62585 18.663 10.0927C19.5893 9.7521 20.5111 9.62448 21.2579 9.6181C21.0416 8.7021 20.6891 7.8387 20.2231 7.05043ZM21.4841 11.1205C20.8884 11.1008 20.0774 11.1847 19.2597 11.4721C19.7704 12.8152 20.1557 14.3146 20.4679 16.0137C21.1307 14.7384 21.5053 13.2893 21.5053 11.7527C21.5053 11.5402 21.4982 11.3294 21.4841 11.1205ZM17.3185 10.7576C17.1273 10.3676 16.9217 9.99621 16.7 9.6409L5.38905 17.9578C6.91609 19.6458 9.05714 20.7679 11.4599 20.9718C12.2581 19.9042 13.762 17.4484 14.717 14.2651C15.2199 12.5887 16.2065 11.4721 17.3185 10.7576ZM13.2971 20.947C14.1957 19.5483 15.356 17.3552 16.1537 14.6962C16.5082 13.5145 17.1591 12.7088 17.9169 12.1636C18.4903 13.7191 18.9052 15.5502 19.2403 17.7751C19.2421 17.787 19.2442 17.7989 19.2466 17.8107C17.7645 19.5202 15.6661 20.6809 13.2971 20.947ZM11.8923 22.4994C12.0119 22.5033 12.1321 22.5053 12.2527 22.5053C18.1912 22.5053 23.0053 17.6912 23.0053 11.7527C23.0053 5.81413 18.1912 1 12.2527 1C6.31413 1 1.5 5.81413 1.5 11.7527C1.5 17.4845 5.9849 22.1689 11.6369 22.488C11.7211 22.5064 11.8075 22.5101 11.8923 22.4994Z" fill="#101820"/>
</g>
</svg>
