<svg width="25" height="24" viewBox="0 0 25 24" fill="none" xmlns="http://www.w3.org/2000/svg">
<g id="icon_auto" clip-path="url(#clip0_3807_1406)">
<path id="Icon" fill-rule="evenodd" clip-rule="evenodd" d="M16.3 1.25H16.2679H16.2679C15.455 1.24999 14.7994 1.24999 14.2685 1.29336C13.7219 1.33803 13.2418 1.43239 12.7975 1.65873C12.0919 2.01825 11.5183 2.59193 11.1587 3.29754C10.9324 3.74176 10.838 4.2219 10.7934 4.76853C10.7811 4.91879 10.7723 5.07903 10.766 5.25H8.12363L7.99527 5.24998H7.99527C6.79734 5.24971 6.02619 5.24953 5.31976 5.47513C4.6959 5.67436 4.11999 6.00044 3.62818 6.43288C3.07127 6.92258 2.67467 7.58393 2.05858 8.61128L1.99255 8.72136L1.76894 9.09405L1.73685 9.14752C1.42789 9.66231 1.22866 9.99428 1.08585 10.3536C0.959319 10.672 0.867601 11.0031 0.812299 11.3412C0.749887 11.7228 0.749933 12.11 0.750005 12.7103L0.75001 12.7727V16L0.750009 16.0253L0.750009 16.0253L0.750009 16.0253C0.750002 16.4697 0.749995 16.8408 0.770779 17.1454C0.792415 17.4625 0.839058 17.762 0.959341 18.0524C1.23845 18.7262 1.7738 19.2616 2.44763 19.5407C2.73802 19.661 3.03754 19.7076 3.35465 19.7292C3.49657 19.7389 3.65291 19.7441 3.82438 19.7468C4.17062 21.4601 5.68468 22.75 7.50001 22.75C9.31423 22.75 10.8275 21.4617 11.175 19.75H13.825C14.1725 21.4617 15.6858 22.75 17.5 22.75C19.3364 22.75 20.8644 21.4301 21.1872 19.6872C22.9301 19.3644 24.25 17.8363 24.25 16V6.8V6.76788C24.25 5.95505 24.25 5.29944 24.2066 4.76853C24.162 4.2219 24.0676 3.74176 23.8413 3.29754C23.4818 2.59193 22.9081 2.01825 22.2025 1.65873C21.7583 1.43239 21.2781 1.33803 20.7315 1.29336C20.2006 1.24999 19.545 1.24999 18.7322 1.25H18.7321H18.7H16.3ZM8.12363 6.75H10.75V6.7679V6.8V7.8C10.75 8.37243 10.7494 8.75664 10.7253 9.05252C10.7018 9.33965 10.6599 9.47693 10.6138 9.56749C10.4939 9.80269 10.3027 9.99392 10.0675 10.1138C9.97694 10.1599 9.83965 10.2018 9.55253 10.2252C9.25665 10.2494 8.87244 10.25 8.30001 10.25H2.82586C2.88995 10.1415 2.96538 10.0154 3.05517 9.8658L3.27879 9.4931C3.98413 8.31754 4.25923 7.87541 4.61869 7.55934C4.95518 7.26346 5.34923 7.04035 5.77608 6.90404C6.23204 6.75843 6.7527 6.75 8.12363 6.75ZM2.27136 11.75C2.25139 11.9626 2.25001 12.2377 2.25001 12.7727V16C2.25001 16.4762 2.25042 16.7958 2.2673 17.0433C2.28372 17.284 2.3132 17.4012 2.34516 17.4784C2.47203 17.7846 2.71537 18.028 3.02166 18.1549C3.09881 18.1868 3.21602 18.2163 3.45675 18.2327C3.56392 18.24 3.68461 18.2442 3.8257 18.2467C4.17443 16.5367 5.68696 15.25 7.50001 15.25C9.31423 15.25 10.8275 16.5383 11.175 18.25H13.825C14.1725 16.5383 15.6858 15.25 17.5 15.25C19.28 15.25 20.7703 16.4901 21.1541 18.1535C22.0777 17.8733 22.75 17.0152 22.75 16V6.8C22.75 5.94755 22.7494 5.35331 22.7116 4.89068C22.6745 4.43681 22.6054 4.17604 22.5048 3.97852C22.2891 3.55516 21.9449 3.21095 21.5215 2.99524C21.324 2.8946 21.0632 2.82547 20.6093 2.78838C20.1467 2.75058 19.5525 2.75 18.7 2.75H16.3C15.4476 2.75 14.8533 2.75058 14.3907 2.78838C13.9368 2.82547 13.676 2.8946 13.4785 2.99524C13.0552 3.21095 12.711 3.55516 12.4952 3.97852C12.3946 4.17604 12.3255 4.43681 12.2884 4.89068C12.2506 5.35331 12.25 5.94755 12.25 6.8V7.8V7.83045V7.83049C12.25 7.84781 12.25 7.86504 12.25 7.88217V8C12.25 8.00258 12.25 8.00517 12.25 8.00774C12.2496 8.46409 12.2467 8.8515 12.2203 9.17467C12.1892 9.55456 12.1221 9.91121 11.9503 10.2485C11.6866 10.7659 11.2659 11.1866 10.7485 11.4503C10.4112 11.6221 10.0546 11.6892 9.67468 11.7203C9.31045 11.75 8.86462 11.75 8.33048 11.75H8.33044H8.30001H2.27136ZM7.50001 16.75C6.25737 16.75 5.25001 17.7574 5.25001 19C5.25001 20.2426 6.25737 21.25 7.50001 21.25C8.74265 21.25 9.75001 20.2426 9.75001 19C9.75001 17.7574 8.74265 16.75 7.50001 16.75ZM17.5 16.75C16.2574 16.75 15.25 17.7574 15.25 19C15.25 20.2426 16.2574 21.25 17.5 21.25C18.7427 21.25 19.75 20.2426 19.75 19C19.75 17.7574 18.7427 16.75 17.5 16.75Z" fill="#101820"/>
</g>
<defs>
<clipPath id="clip0_3807_1406">
<rect width="24" height="24" fill="white" transform="translate(0.5)"/>
</clipPath>
</defs>
</svg>
