<svg width="25" height="24" viewBox="0 0 25 24" fill="none" xmlns="http://www.w3.org/2000/svg">
<g id="icon_desktop">
<path id="Icon" fill-rule="evenodd" clip-rule="evenodd" d="M10.4664 1.25C9.09472 1.25 8.01929 1.24999 7.15494 1.32061C6.27479 1.39252 5.54769 1.54138 4.88955 1.87671C3.80762 2.42798 2.92798 3.30762 2.37671 4.38955C2.04138 5.04769 1.89252 5.77479 1.82061 6.65494C1.74999 7.51929 1.75 8.59472 1.75 9.96644V10.0336C1.75 11.4053 1.74999 12.4807 1.82061 13.3451C1.89252 14.2252 2.04138 14.9523 2.37671 15.6104C2.92798 16.6924 3.80762 17.572 4.88955 18.1233C5.54769 18.4586 6.27479 18.6075 7.15494 18.6794C8.01927 18.75 9.09469 18.75 10.4664 18.75H11.75V21.25H9.5C9.08579 21.25 8.75 21.5858 8.75 22C8.75 22.4142 9.08579 22.75 9.5 22.75H15.5C15.9142 22.75 16.25 22.4142 16.25 22C16.25 21.5858 15.9142 21.25 15.5 21.25H13.25V18.75H14.5336C15.9053 18.75 16.9807 18.75 17.8451 18.6794C18.7252 18.6075 19.4523 18.4586 20.1104 18.1233C21.1924 17.572 22.072 16.6924 22.6233 15.6104C22.9586 14.9523 23.1075 14.2252 23.1794 13.3451C23.25 12.4807 23.25 11.4053 23.25 10.0336V9.96642C23.25 8.59473 23.25 7.51927 23.1794 6.65494C23.1075 5.77479 22.9586 5.04769 22.6233 4.38955C22.072 3.30762 21.1924 2.42798 20.1104 1.87671C19.4523 1.54138 18.7252 1.39252 17.8451 1.32061C16.9807 1.24999 15.9053 1.25 14.5336 1.25H10.4664ZM14.5 17.25C15.9125 17.25 16.9268 17.2494 17.7229 17.1844C18.5103 17.12 19.018 16.9964 19.4295 16.7868C20.2291 16.3793 20.8793 15.7291 21.2868 14.9295C21.4964 14.518 21.62 14.0103 21.6844 13.2229C21.7494 12.4268 21.75 11.4125 21.75 10C21.75 8.58749 21.7494 7.57322 21.6844 6.77708C21.62 5.9897 21.4964 5.48197 21.2868 5.07054C20.8793 4.27085 20.2291 3.62068 19.4295 3.21322C19.018 3.00359 18.5103 2.87996 17.7229 2.81563C16.9268 2.75058 15.9125 2.75 14.5 2.75H10.5C9.08749 2.75 8.07322 2.75058 7.27708 2.81563C6.4897 2.87996 5.98197 3.00359 5.57054 3.21322C4.77085 3.62068 4.12068 4.27085 3.71322 5.07054C3.50359 5.48197 3.37996 5.9897 3.31563 6.77708C3.25058 7.57322 3.25 8.58749 3.25 10C3.25 11.4125 3.25058 12.4268 3.31563 13.2229C3.37996 14.0103 3.50359 14.518 3.71322 14.9295C4.12068 15.7291 4.77085 16.3793 5.57054 16.7868C5.98197 16.9964 6.4897 17.12 7.27708 17.1844C8.07322 17.2494 9.08749 17.25 10.5 17.25H14.5Z" fill="#101820"/>
</g>
</svg>
