<svg width="25" height="24" viewBox="0 0 25 24" fill="none" xmlns="http://www.w3.org/2000/svg">
<g id="icon_apparel">
<path id="Icon" fill-rule="evenodd" clip-rule="evenodd" d="M9.24619 1.79398L5.6428 2.99511C4.8754 3.25092 4.25954 3.83161 3.95912 4.58267L2.06272 9.32365C1.48997 10.7555 2.20646 12.3784 3.65044 12.9199L5.73663 13.7022L5.74998 13.7071V22C5.74998 22.4142 6.08576 22.75 6.49998 22.75H18.5C18.9142 22.75 19.25 22.4142 19.25 22V13.5405L21.2249 12.8822C22.726 12.3819 23.4962 10.7211 22.9086 9.25202L21.0408 4.58267C20.7404 3.83161 20.1246 3.25092 19.3571 2.99511L15.7538 1.79398C15.7109 1.77857 15.6662 1.76695 15.6201 1.75953C15.5325 1.7452 15.4448 1.7469 15.3607 1.76286C15.2506 1.78355 15.1489 1.82831 15.0614 1.89148C14.9736 1.95466 14.8988 2.0372 14.8443 2.13548C14.8028 2.21002 14.7736 2.29239 14.7595 2.3798C14.7521 2.42509 14.749 2.47038 14.7499 2.51517C14.7417 3.75081 13.7375 4.74996 12.5 4.74996C11.2624 4.74996 10.2582 3.75081 10.25 2.51517C10.2509 2.47038 10.2478 2.42509 10.2404 2.3798C10.2263 2.29239 10.1971 2.21002 10.1556 2.13548C10.1011 2.03724 10.0264 1.95472 9.93863 1.89155C9.85112 1.82834 9.74942 1.78355 9.63923 1.76286C9.55513 1.7469 9.46748 1.7452 9.37982 1.75953C9.33374 1.76695 9.28906 1.77857 9.24619 1.79398ZM16.1163 3.49596C15.68 5.08359 14.2262 6.24996 12.5 6.24996C10.7738 6.24996 9.31996 5.08359 8.88368 3.49596L6.11714 4.41814C5.76832 4.53441 5.48839 4.79837 5.35183 5.13976L3.45544 9.88074C3.1951 10.5316 3.52077 11.2693 4.17713 11.5154L5.74998 12.1052V8.99996C5.74998 8.58575 6.08576 8.24996 6.49998 8.24996C6.91419 8.24996 7.24998 8.58575 7.24998 8.99996V21.25H17.75V13.0173C17.7497 13.0056 17.7497 12.994 17.75 12.9824V8.99996C17.75 8.58575 18.0858 8.24996 18.5 8.24996C18.9142 8.24996 19.25 8.58575 19.25 8.99996V11.9594L20.7505 11.4592C21.4329 11.2318 21.783 10.4769 21.5159 9.80911L19.6481 5.13976C19.5116 4.79837 19.2316 4.53441 18.8828 4.41814L16.1163 3.49596Z" fill="#101820"/>
</g>
</svg>
