<svg width="25" height="24" viewBox="0 0 25 24" fill="none" xmlns="http://www.w3.org/2000/svg">
<g id="icon_tickets">
<path id="Icon" fill-rule="evenodd" clip-rule="evenodd" d="M6.10002 2.25002L6.03058 2.25001C5.54011 2.24991 5.20598 2.24984 4.91339 2.29619C3.30879 2.55033 2.05033 3.80879 1.79619 5.41339C1.74984 5.70598 1.74991 6.04011 1.75001 6.53058L1.75002 6.60002V8.82355C1.75002 9.33522 2.16481 9.75002 2.67649 9.75002C3.82167 9.75002 4.75002 10.6784 4.75002 11.8235V12.1765C4.75002 13.3217 3.82167 14.25 2.67649 14.25C2.16481 14.25 1.75002 14.6648 1.75002 15.1765V17.4L1.75001 17.4695C1.74991 17.9599 1.74984 18.2941 1.79619 18.5866C2.05033 20.1912 3.30879 21.4497 4.91339 21.7038C5.20598 21.7502 5.54012 21.7501 6.03059 21.75L6.10002 21.75H18.9L18.9694 21.75C19.4599 21.7501 19.7941 21.7502 20.0866 21.7038C21.6912 21.4497 22.9497 20.1912 23.2038 18.5866C23.2502 18.2941 23.2501 17.9599 23.25 17.4694L23.25 17.4V15.1765C23.25 14.6648 22.8352 14.25 22.3235 14.25C21.1784 14.25 20.25 13.3217 20.25 12.1765V11.8235C20.25 10.6784 21.1784 9.75002 22.3235 9.75002C22.8352 9.75002 23.25 9.33522 23.25 8.82355V6.60002L23.25 6.53059C23.2501 6.04012 23.2502 5.70598 23.2038 5.41339C22.9497 3.80879 21.6912 2.55033 20.0866 2.29619C19.7941 2.24984 19.4599 2.24991 18.9695 2.25001L18.9 2.25002H6.10002ZM5.14804 3.77772C5.30824 3.75235 5.51395 3.75002 6.10002 3.75002H18.9C19.4861 3.75002 19.6918 3.75235 19.852 3.77772C20.8148 3.9302 21.5698 4.68528 21.7223 5.64804C21.7477 5.80824 21.75 6.01395 21.75 6.60002V8.2958C20.0491 8.5702 18.75 10.0452 18.75 11.8235V12.1765C18.75 13.9549 20.0491 15.4298 21.75 15.7042V17.4C21.75 17.9861 21.7477 18.1918 21.7223 18.352C21.5698 19.3148 20.8148 20.0698 19.852 20.2223C19.6918 20.2477 19.4861 20.25 18.9 20.25H6.10002C5.51395 20.25 5.30824 20.2477 5.14804 20.2223C4.18528 20.0698 3.4302 19.3148 3.27772 18.352C3.25235 18.1918 3.25002 17.9861 3.25002 17.4V15.7042C4.95097 15.4298 6.25002 13.9549 6.25002 12.1765V11.8235C6.25002 10.0452 4.95097 8.5702 3.25002 8.2958V6.60002C3.25002 6.01395 3.25235 5.80824 3.27772 5.64804C3.4302 4.68528 4.18528 3.9302 5.14804 3.77772ZM10.25 11C10.25 10.5858 9.91423 10.25 9.50002 10.25C9.0858 10.25 8.75002 10.5858 8.75002 11V13C8.75002 13.4142 9.0858 13.75 9.50002 13.75C9.91423 13.75 10.25 13.4142 10.25 13L10.25 11ZM9.50002 5.25002C9.91423 5.25002 10.25 5.5858 10.25 6.00002L10.25 8.00002C10.25 8.41423 9.91423 8.75002 9.50002 8.75002C9.0858 8.75002 8.75002 8.41423 8.75002 8.00002V6.00002C8.75002 5.5858 9.0858 5.25002 9.50002 5.25002ZM10.25 16C10.25 15.5858 9.91423 15.25 9.50002 15.25C9.0858 15.25 8.75002 15.5858 8.75002 16V18C8.75002 18.4142 9.0858 18.75 9.50002 18.75C9.91423 18.75 10.25 18.4142 10.25 18L10.25 16Z" fill="#101820"/>
</g>
</svg>
