<svg width="25" height="24" viewBox="0 0 25 24" fill="none" xmlns="http://www.w3.org/2000/svg">
<g id="icon_gift">
<path id="Icon" fill-rule="evenodd" clip-rule="evenodd" d="M16 2.75C16.9665 2.75 17.75 3.5335 17.75 4.5C17.75 5.4665 16.9665 6.25 16 6.25H13.508L14.1667 4.05432C14.399 3.28016 15.1115 2.75 15.9198 2.75H16ZM19.25 4.5C19.25 5.14432 19.0625 5.74485 18.7391 6.25H20.5C22.0188 6.25 23.25 7.48122 23.25 9C23.25 10.2588 22.4043 11.32 21.25 11.6465V17.2V17.2321C21.25 18.045 21.25 18.7006 21.2066 19.2315C21.162 19.7781 21.0676 20.2582 20.8413 20.7025C20.4818 21.4081 19.9081 21.9818 19.2025 22.3413C18.7582 22.5676 18.2781 22.662 17.7315 22.7066C17.2006 22.75 16.545 22.75 15.7321 22.75H15.7H12.5H9.3H9.26788C8.45505 22.75 7.79944 22.75 7.26853 22.7066C6.7219 22.662 6.24175 22.5676 5.79754 22.3413C5.09193 21.9818 4.51825 21.4081 4.15873 20.7025C3.93238 20.2582 3.83803 19.7781 3.79336 19.2315C3.74999 18.7006 3.74999 18.0449 3.75 17.2321L3.75 17.2V11.6465C2.59575 11.32 1.75 10.2588 1.75 9C1.75 7.48122 2.98122 6.25 4.5 6.25H6.26091C5.9375 5.74485 5.75 5.14432 5.75 4.5C5.75 2.70507 7.20507 1.25 9 1.25H9.08023C10.5509 1.25 11.8474 2.21466 12.27 3.6233L12.5 4.38993L12.73 3.6233C13.1526 2.21466 14.4491 1.25 15.9198 1.25H16C17.7949 1.25 19.25 2.70507 19.25 4.5ZM5.25 11.75V17.2C5.25 18.0525 5.25058 18.6467 5.28838 19.1093C5.32546 19.5632 5.3946 19.824 5.49524 20.0215C5.71095 20.4448 6.05516 20.789 6.47852 21.0048C6.67604 21.1054 6.9368 21.1745 7.39068 21.2116C7.85331 21.2494 8.44755 21.25 9.3 21.25H11.75V11.75H5.25ZM13.25 11.75V21.25H15.7C16.5525 21.25 17.1467 21.2494 17.6093 21.2116C18.0632 21.1745 18.324 21.1054 18.5215 21.0048C18.9448 20.789 19.289 20.4448 19.5048 20.0215C19.6054 19.824 19.6745 19.5632 19.7116 19.1093C19.7494 18.6467 19.75 18.0525 19.75 17.2V11.75H13.25ZM21.75 9C21.75 9.69036 21.1904 10.25 20.5 10.25H13.25V7.75H16H20.5C21.1904 7.75 21.75 8.30964 21.75 9ZM11.75 10.25V7.75H9H4.5C3.80964 7.75 3.25 8.30964 3.25 9C3.25 9.69036 3.80964 10.25 4.5 10.25H11.75ZM11.492 6.25L10.8333 4.05432C10.601 3.28016 9.88847 2.75 9.08023 2.75H9C8.0335 2.75 7.25 3.5335 7.25 4.5C7.25 5.4665 8.0335 6.25 9 6.25H11.492Z" fill="#101820"/>
</g>
</svg>
