<svg width="25" height="24" viewBox="0 0 25 24" fill="none" xmlns="http://www.w3.org/2000/svg">
<path fill-rule="evenodd" clip-rule="evenodd" d="M11.8613 0.250088L11.9985 0.250176L13.0015 0.250176L13.1387 0.250088C13.8962 0.249339 14.4893 0.248752 15.0036 0.464852C15.4545 0.654262 15.8466 0.960459 16.1397 1.35189C16.4741 1.79847 16.6174 2.37401 16.8004 3.10906L16.8336 3.24216L17.1734 4.60142C19.6233 6.15216 21.25 8.88621 21.25 12.0002C21.25 15.1141 19.6233 17.8482 17.1734 19.3989L16.8336 20.7582L16.8004 20.8913C16.6174 21.6263 16.4741 22.2019 16.1397 22.6485C15.8466 23.0399 15.4545 23.3461 15.0036 23.5355C14.4893 23.7516 13.8962 23.751 13.1387 23.7503L13.0015 23.7502L11.9985 23.7502L11.8613 23.7503C11.1038 23.751 10.5107 23.7516 9.99636 23.5355C9.54554 23.3461 9.15337 23.0399 8.86027 22.6485C8.52587 22.2019 8.38259 21.6263 8.1996 20.8913L8.16642 20.7582L7.82661 19.3989C5.37666 17.8482 3.75 15.1141 3.75 12.0002C3.75 8.88621 5.37666 6.15216 7.82661 4.60142L8.16642 3.24216L8.1996 3.10905C8.38259 2.37401 8.52587 1.79847 8.86027 1.35189C9.15337 0.960459 9.54554 0.654262 9.99636 0.464852C10.5107 0.248752 11.1038 0.249339 11.8613 0.250088ZM9.58638 20.2534L9.62163 20.3944C9.85519 21.3286 9.93211 21.5773 10.061 21.7494C10.1942 21.9273 10.3725 22.0665 10.5774 22.1526C10.7756 22.2359 11.0355 22.2502 11.9985 22.2502L13.0015 22.2502C13.9645 22.2502 14.2244 22.2359 14.4226 22.1526C14.6275 22.0665 14.8058 21.9273 14.939 21.7494C15.0679 21.5773 15.1448 21.3286 15.3784 20.3944L15.4136 20.2534C14.5022 20.5751 13.5215 20.7502 12.5 20.7502C11.4784 20.7502 10.4978 20.5751 9.58638 20.2534ZM15.3784 3.60597L15.4136 3.74699C14.5022 3.42524 13.5215 3.25018 12.5 3.25018C11.4784 3.25018 10.4978 3.42524 9.58638 3.74699L9.62163 3.60596C9.85519 2.67174 9.93211 2.42305 10.061 2.25096C10.1942 2.07303 10.3725 1.93385 10.5774 1.84776C10.7756 1.76448 11.0355 1.75018 11.9985 1.75018L13.0015 1.75018C13.9645 1.75018 14.2244 1.76448 14.4226 1.84776C14.6275 1.93385 14.8058 2.07303 14.939 2.25096C15.0679 2.42305 15.1448 2.67174 15.3784 3.60597ZM5.25 12.0002C5.25 7.99611 8.49593 4.75018 12.5 4.75018C16.5041 4.75018 19.75 7.99611 19.75 12.0002C19.75 16.0042 16.5041 19.2502 12.5 19.2502C8.49593 19.2502 5.25 16.0042 5.25 12.0002ZM13.25 10.0002C13.25 9.58596 12.9142 9.25018 12.5 9.25018C12.0858 9.25018 11.75 9.58596 11.75 10.0002L11.75 12.0002C11.75 12.2509 11.8753 12.4851 12.084 12.6242L13.584 13.6242C13.9286 13.854 14.3943 13.7608 14.624 13.4162C14.8538 13.0716 14.7607 12.6059 14.416 12.3761L13.25 11.5988L13.25 10.0002Z" fill="#101820"/>
</svg>
